<svg xmlns="http://www.w3.org/2000/svg" viewBox="0 0 612 792"><defs><style>.cls-1{fill:#d8d8d8;}.cls-2{fill:#131322;}.cls-3{fill:#fcc097;}.cls-4,.cls-5{fill:#231f20;}.cls-10,.cls-11,.cls-5{stroke:#231f20;}.cls-10,.cls-11,.cls-12,.cls-5{stroke-miterlimit:10;}.cls-6{fill:#0b233e;}.cls-7{fill:#e39969;}.cls-8{fill:#936545;}.cls-9{fill:#d59467;}.cls-10,.cls-11{fill:none;}.cls-10,.cls-12{stroke-width:9px;}.cls-11{stroke-width:7px;}.cls-12{fill:#f8971d;stroke:#d77d29;}.cls-13{fill:#d77d28;}.cls-14{font-size:15.95px;fill:#fff;font-family:RetroGaming, Retro Gaming;}</style></defs><g id="face"><ellipse class="cls-1" cx="300.32" cy="561.09" rx="186.3" ry="84.87"/><rect class="cls-2" x="216.62" y="386.04" width="151.43" height="38.87"/><path class="cls-3" d="M445,266.16a15.48,15.48,0,0,0-2.66.25V229.08A60.12,60.12,0,0,0,382.22,169H210.74a60.12,60.12,0,0,0-60.12,60.12v37.31a15.22,15.22,0,0,0-4.2-.59c-8.75,0-16.2,7.06-16.2,17.1,0,17.82,8.89,39.42,17.64,39.42a12.09,12.09,0,0,0,2.76-.31v8.59a60.12,60.12,0,0,0,60.12,60.12L298.1,395l84.12-4.32a60.12,60.12,0,0,0,60.12-60.12v-6.19a12.12,12.12,0,0,0,1.22.07c8.75,0,17.64-22.29,17.64-40.68C461.2,273.44,453.75,266.16,445,266.16Z"/><circle class="cls-4" cx="225.48" cy="311.76" r="25.92"/><circle class="cls-5" cx="371.88" cy="311.76" r="25.92"/><path class="cls-6" d="M340.82,251.28s-5,11.76,5.28,11,52.56-12.24,63.84-1.68l7.92,3.36s-.72-7.92-14.16-15.12-54.24,1.44-54.24,1.44l-4.32,3.84,2.16-5.28L342,254.16Z"/><path class="cls-6" d="M251.51,251.76s5,11.76-5.28,11-52.56-12.24-63.84-1.68l-7.92,3.36s.72-7.92,14.16-15.12,54.24,1.44,54.24,1.44l4.32,3.84L245,249.36l5.28,5.28Z"/><polygon class="cls-7" points="306.98 337.68 287.78 337.68 296.66 301.92 306.98 337.68"/><polygon class="cls-8" points="287.78 337.68 297.92 331.98 306.8 337.62 287.78 337.68"/><polygon class="cls-9" points="296.66 301.92 297.92 331.98 306.8 337.62 296.66 301.92"/><path class="cls-6" d="M457.44,255.6c9.1-15.16-1-28.91-3.19-31.58a1.37,1.37,0,0,1-.29-1.09c.82-6.33-1.44-16.75-1.93-18.9a1.39,1.39,0,0,1,.06-.78c1.74-4.88,0-10.72-.63-12.64a1.42,1.42,0,0,1,.09-1.16c4.19-7-7.71-13-10.54-14.35a1.37,1.37,0,0,1-.76-.91c-4.17-14.6-23.25-27.08-26.11-28.89a1.39,1.39,0,0,1-.53-.62c-1.89-4-8.57-8.55-9.15-8.93l-.08-.06c-7.79-4.8-23.26-3.2-27-2.72a1.49,1.49,0,0,1-1.33-.56c-7.95-10.26-16.43-10.09-18.92-9.77a1.42,1.42,0,0,1-1.26-.51c-9.91-11.5-25.48-16.74-29.78-18a1.43,1.43,0,0,0-1.68.71l-1,1.84a1.45,1.45,0,0,1-1.22.76l-24.17.92a1.26,1.26,0,0,1-.39,0L292.28,107a1.47,1.47,0,0,0-.83,0l-2.77,1a2.21,2.21,0,0,1-.37.08l-8,.66a1.46,1.46,0,0,1-.84-.18l-9.59-5.55a1.44,1.44,0,0,0-1.59.1A61.58,61.58,0,0,0,255.59,116a1.42,1.42,0,0,1-.57.46c-4.32,2-5.47,3.72-5.77,4.57a1.39,1.39,0,0,1-.84.82l-12.56,4.71a1.09,1.09,0,0,1-.31.08l-15.06,2.12a.9.9,0,0,0-.27.07l-11.51,4-.24.06L197,134.72a2,2,0,0,0-.41.13c-20.49,9.84-28.85,23.67-30.76,24.87-1.46.91-4.86.16-6.4-.25a1.4,1.4,0,0,0-1.46.44c-2.2,2.77-1.48,8.45-1.15,10.41a1.42,1.42,0,0,1-.36,1.21c-19.78,21.49-20.23,34.41-20.17,36.4a1.5,1.5,0,0,1-.08.55,55.43,55.43,0,0,0,1.57,42.27,1.42,1.42,0,0,1,.13.88c-.36,2.12-1.75,10.84-1.12,14.41.45,2.56,1.85,3.42,2.82,3.7a1.45,1.45,0,0,1,1.06,1.34c.73,19,1.9,8.31,2.84,15.6.48,3.72,1.56,4.92,2.52,5.19a1.42,1.42,0,0,0,1.72-1.51c-.27-3.89-1-16.76,1-21a36.24,36.24,0,0,0,3.36-19.08c-.48-4.67,3.78,4.5,2.7-8.64-.92-11.15-.8-19.44,3.6-15.48,1.53,1.38,10.62,5.4,8.1-17.46-.37-3.38,4.74-3.93,5-8.82.73-12,7.17,4.53,18.9,12.24,6.3,4.14,21.3,4.91,31,.9,1.9-.79,11.49-3.1,13.86-4,2.2-.8,3.2-2.93,5.76-3.78,4-1.33,4.41-4.66,9.38-7.52,2.84-1.63,5.77-3.31,8.75-4.82a57.56,57.56,0,0,1,10.31-4.22c10.6-3,18.37,22.52,29.52,19.62,2.62-.68,7.82-5.24,9.18-1.62.55,1.46,3.31.55,4.5,1.44s.72,3.52,2.88,4.14c8.82,2.52,28.26-16.74,40.5-14.22,14.76,3,13.1-13.14,14.78-11.66.12.1,2.54.8,2.68.86s6.4,9.79,11.34,11c7.45,1.8,16.89-.34,23-.36,6.77,0,9.9,2,9.9,2a31.86,31.86,0,0,1,11,8.28l4.83,12.39a23.93,23.93,0,0,1,2.37,6.87c2.09,11.53,4.3,23.71,4.32,24.12l3.81,34A1.44,1.44,0,0,0,447,286c1.5-3.79,3.38-8.9,4.75-13.75,1.22-4.32,2.59-4.86,3.71-4.18a1.44,1.44,0,0,0,2.15-1.31l-.33-10.41A1.41,1.41,0,0,1,457.44,255.6Z"/><rect class="cls-10" x="158.16" y="248.95" width="127.46" height="85.93" rx="15.92"/><rect class="cls-10" x="316.83" y="248.95" width="127.46" height="85.93" rx="15.92"/><rect class="cls-11" x="281.04" y="277.38" width="36.48" height="5.32"/><path class="cls-3" d="M451,419.71s-1.72-22-9.16-22-5.28,19.44-5.28,19.44Z"/><path class="cls-3" d="M138.94,421.61s1.72-22,9.16-22S153.38,419,153.38,419Z"/><path class="cls-12" d="M174,374.55l113.74,37.29h29.05l95.11-37a16,16,0,0,1,23.47,14.27l-1.1,150.64A25.33,25.33,0,0,1,418.72,563L316.58,612.48l-28.8-.24L166.52,570.45A20.55,20.55,0,0,1,152.66,551V387.75A14.77,14.77,0,0,1,174,374.55Z"/><rect class="cls-13" x="287.78" y="414.92" width="28.8" height="194.68"/><text class="cls-14" transform="translate(334.16 438.38)">How to <tspan x="-3.71" y="19.14">change </tspan><tspan x="-9.6" y="38.27">of carea </tspan><tspan x="-3.17" y="57.41">and not </tspan><tspan x="21.38" y="76.54">die </tspan><tspan x="-0.08" y="95.68">trying? </tspan></text><path class="cls-5" d="M224.72,550.92H229A32.94,32.94,0,0,1,262,583.86v23.22a23.76,23.76,0,0,1-23.76,23.76H218.78A23.76,23.76,0,0,1,195,607.08V580.62a29.7,29.7,0,0,1,29.7-29.7Z"/><path class="cls-5" d="M364.88,550.92h4.32a32.94,32.94,0,0,1,32.94,32.94v23.22a23.76,23.76,0,0,1-23.76,23.76H358.94a23.76,23.76,0,0,1-23.76-23.76V580.62A29.7,29.7,0,0,1,364.88,550.92Z"/><rect class="cls-3" x="128.98" y="417.81" width="50.2" height="58.34" rx="18.58" transform="translate(137.26 -25.51) rotate(16.98)"/><rect class="cls-3" x="410.73" y="415.92" width="50.2" height="58.34" rx="18.58" transform="translate(982.64 743.49) rotate(163.02)"/></g></svg>