<svg id="Layer_1" data-name="Layer 1" xmlns="http://www.w3.org/2000/svg" viewBox="0 0 612 792"><defs><style>.cls-1{fill:#300;}.cls-2{fill:#ff9a00;}</style></defs><rect class="cls-1" x="86.84" y="122.84" width="417.6" height="408.24" rx="73.8"/><path class="cls-2" d="M344.71,409.14l-17.39-48.7L291.14,257.66,281.75,231a5,5,0,0,0-1-1.64l-.1-.1a4.75,4.75,0,0,0-3.47-1.53l-42.77-.16a2,2,0,0,0-2,1.95l-.26,7.24a5,5,0,0,1-.26,1.37l-57.2,166.41a4.75,4.75,0,0,0,4.47,6.29l26.24.13a6.82,6.82,0,0,0,6.5-4.67l11.76-35.43a4.74,4.74,0,0,1,4.52-3.25l57.83.16a4.76,4.76,0,0,1,4.47,3.16l13.05,36.87A4.77,4.77,0,0,0,308,411l35.5-.16A1.28,1.28,0,0,0,344.71,409.14ZM235,332.18l21.24-72.72,22.68,72.9Z"/><ellipse class="cls-2" cx="383.22" cy="236.24" rx="22.4" ry="22.32"/><rect class="cls-2" x="363.86" y="272.42" width="39.06" height="139.5" rx="2.61"/></svg>