<?xml version="1.0" encoding="utf-8"?>
<!-- Generator: Adobe Illustrator 26.0.0, SVG Export Plug-In . SVG Version: 6.00 Build 0)  -->
<svg version="1.1" id="Layer_1" xmlns="http://www.w3.org/2000/svg" xmlns:xlink="http://www.w3.org/1999/xlink" x="0px" y="0px"
	 viewBox="0 0 323.52 330.84" style="enable-background:new 0 0 323.52 330.84;" xml:space="preserve">
<style type="text/css">
	.st0{fill:none;stroke:#D1630E;stroke-width:10.0001;stroke-miterlimit:22.9256;}
	.st1{fill-rule:evenodd;clip-rule:evenodd;fill:#D1630E;}
	.st2{fill-rule:evenodd;clip-rule:evenodd;fill:#FFFFFF;}
	.st3{fill:none;stroke:#DD6108;stroke-width:5;stroke-linecap:round;stroke-linejoin:round;stroke-miterlimit:22.9256;}
	.st4{fill:none;stroke:#DD6108;stroke-width:10.0001;stroke-linecap:round;stroke-linejoin:round;stroke-miterlimit:22.9256;}
	.st5{font-family:'FranklinGothic-Heavy';}
	.st6{font-size:51.017px;}
	.st7{fill:#FFFFFF;}
</style>
<path class="st0" d="M23.23,4.97h277.22c10.3,0,18.72,8.42,18.72,18.72v283.72c0,10.3-8.42,18.72-18.72,18.72H23.23
	c-10.3,0-18.72-8.42-18.72-18.72V23.69C4.51,13.39,12.93,4.97,23.23,4.97z"/>
<path class="st1" d="M121.81,48.56V27c0-1.33,1.08-2.41,2.41-2.41h0.6c1.33,0,2.41,1.08,2.41,2.41v21.54c1.96,0,3.57,1.6,3.57,3.57
	v1.95c0.62,0.27,1.05,0.89,1.05,1.6v24.56h-14.05V55.65c0-0.63,0.34-1.19,0.85-1.5V52.1C118.65,50.28,120.04,48.76,121.81,48.56"/>
<path class="st1" d="M149.28,48.56V27c0-1.33,1.08-2.41,2.41-2.41h0.6c1.32,0,2.41,1.08,2.41,2.41v21.54c1.96,0,3.57,1.6,3.57,3.57
	v1.95c0.62,0.27,1.05,0.89,1.05,1.6v24.56h-14.05V55.65c0-0.63,0.34-1.19,0.85-1.5V52.1C146.12,50.28,147.5,48.76,149.28,48.56"/>
<path class="st1" d="M175.7,48.56V27c0-1.33,1.08-2.41,2.41-2.41h0.6c1.33,0,2.41,1.08,2.41,2.41v21.54c1.96,0,3.57,1.6,3.57,3.57
	v1.95c0.62,0.27,1.05,0.89,1.05,1.6v24.56h-14.05V55.65c0-0.63,0.34-1.19,0.85-1.5V52.1C172.54,50.28,173.92,48.76,175.7,48.56"/>
<path class="st1" d="M203.16,48.56V27c0-1.33,1.08-2.41,2.41-2.41h0.6c1.32,0,2.41,1.08,2.41,2.41v21.54c1.96,0,3.57,1.6,3.57,3.57
	v1.95c0.62,0.27,1.05,0.89,1.05,1.6v24.56h-14.05V55.65c0-0.63,0.34-1.19,0.85-1.5V52.1C200,50.28,201.39,48.76,203.16,48.56"/>
<path class="st1" d="M209.19,240.54v21.56c0,1.33-1.08,2.41-2.41,2.41h-0.6c-1.32,0-2.41-1.08-2.41-2.41v-21.54
	c-1.96,0-3.57-1.6-3.57-3.57v-1.95c-0.62-0.27-1.05-0.89-1.05-1.6v-24.56h14.05v24.56c0,0.63-0.34,1.19-0.85,1.5v2.05
	C212.35,238.82,210.96,240.33,209.19,240.54"/>
<path class="st1" d="M181.72,240.54v21.56c0,1.33-1.08,2.41-2.41,2.41h-0.6c-1.32,0-2.41-1.08-2.41-2.41v-21.54
	c-1.96,0-3.57-1.6-3.57-3.57v-1.95c-0.62-0.27-1.05-0.89-1.05-1.6v-24.56h14.05v24.56c0,0.63-0.34,1.19-0.85,1.5v2.05
	C184.88,238.82,183.5,240.33,181.72,240.54"/>
<path class="st1" d="M155.3,240.54v21.56c0,1.33-1.08,2.41-2.41,2.41h-0.6c-1.32,0-2.41-1.08-2.41-2.41v-21.54
	c-1.96,0-3.57-1.6-3.57-3.57v-1.95c-0.62-0.27-1.05-0.89-1.05-1.6v-24.56h14.05v24.56c0,0.63-0.34,1.19-0.85,1.5v2.05
	C158.46,238.82,157.07,240.33,155.3,240.54"/>
<path class="st1" d="M127.84,240.54v21.56c0,1.33-1.08,2.41-2.41,2.41h-0.6c-1.33,0-2.41-1.08-2.41-2.41v-21.54
	c-1.96,0-3.57-1.6-3.57-3.57v-1.95c-0.62-0.27-1.05-0.89-1.05-1.6v-24.56h14.05v24.56c0,0.63-0.34,1.19-0.85,1.5v2.05
	C131,238.82,129.61,240.33,127.84,240.54"/>
<path class="st1" d="M54.03,188.24H32.47c-1.33,0-2.41-1.08-2.41-2.41v-0.6c0-1.33,1.08-2.41,2.41-2.41h21.54
	c0-1.96,1.6-3.57,3.57-3.57h1.95c0.27-0.62,0.89-1.05,1.6-1.05h24.56v14.05H61.12c-0.63,0-1.19-0.34-1.5-0.85h-2.05
	C55.75,191.4,54.24,190.01,54.03,188.24"/>
<path class="st1" d="M54.03,160.77H32.47c-1.33,0-2.41-1.08-2.41-2.41v-0.6c0-1.32,1.08-2.41,2.41-2.41h21.54
	c0-1.96,1.6-3.57,3.57-3.57h1.95c0.27-0.62,0.89-1.05,1.6-1.05h24.56v14.05H61.12c-0.63,0-1.19-0.34-1.5-0.85h-2.05
	C55.75,163.93,54.24,162.54,54.03,160.77"/>
<path class="st1" d="M54.03,134.35H32.47c-1.33,0-2.41-1.08-2.41-2.41v-0.6c0-1.33,1.08-2.41,2.41-2.41h21.54
	c0-1.96,1.6-3.57,3.57-3.57h1.95c0.27-0.62,0.89-1.05,1.6-1.05h24.56v14.05H61.12c-0.63,0-1.19-0.34-1.5-0.85h-2.05
	C55.75,137.51,54.24,136.12,54.03,134.35"/>
<path class="st1" d="M54.03,106.88H32.47c-1.33,0-2.41-1.08-2.41-2.41v-0.6c0-1.32,1.08-2.41,2.41-2.41h21.54
	c0-1.96,1.6-3.57,3.57-3.57h1.95c0.27-0.62,0.89-1.05,1.6-1.05h24.56v14.05H61.12c-0.63,0-1.19-0.34-1.5-0.85h-2.05
	C55.75,110.04,54.24,108.65,54.03,106.88"/>
<path class="st1" d="M269.65,100.86h21.56c1.33,0,2.41,1.08,2.41,2.41v0.6c0,1.32-1.08,2.41-2.41,2.41h-21.54
	c0,1.96-1.6,3.57-3.57,3.57h-1.95c-0.27,0.62-0.89,1.05-1.6,1.05H238V96.84h24.56c0.63,0,1.19,0.34,1.5,0.85h2.05
	C267.93,97.7,269.44,99.08,269.65,100.86"/>
<path class="st1" d="M269.65,128.32h21.56c1.33,0,2.41,1.08,2.41,2.41v0.6c0,1.32-1.08,2.41-2.41,2.41h-21.54
	c0,1.96-1.6,3.57-3.57,3.57h-1.95c-0.27,0.62-0.89,1.05-1.6,1.05H238v-14.05h24.56c0.63,0,1.19,0.34,1.5,0.85h2.05
	C267.93,125.16,269.44,126.55,269.65,128.32"/>
<path class="st1" d="M269.65,154.74h21.56c1.33,0,2.41,1.08,2.41,2.41v0.6c0,1.33-1.08,2.41-2.41,2.41h-21.54
	c0,1.96-1.6,3.57-3.57,3.57h-1.95c-0.27,0.62-0.89,1.05-1.6,1.05H238v-14.05h24.56c0.63,0,1.19,0.34,1.5,0.85h2.05
	C267.93,151.58,269.44,152.97,269.65,154.74"/>
<path class="st1" d="M269.65,182.21h21.56c1.33,0,2.41,1.08,2.41,2.41v0.6c0,1.32-1.08,2.41-2.41,2.41h-21.54
	c0,1.96-1.6,3.57-3.57,3.57h-1.95c-0.27,0.62-0.89,1.05-1.6,1.05H238V178.2h24.56c0.63,0,1.19,0.34,1.5,0.85h2.05
	C267.93,179.05,269.44,180.44,269.65,182.21"/>
<path class="st2" d="M121.07,80.44h-9.44c-5.19,0-9.44,5.12-9.44,11.37v129.91c6.29,0,12.59-7.22,18.88-7.22V80.44z"/>
<path class="st3" d="M121.07,80.44h-9.44c-5.19,0-9.44,5.12-9.44,11.37v129.91c6.29,0,12.59-7.22,18.88-7.22V80.44z"/>
<path class="st2" d="M108.93,214.43h109.12v14.44H108.93c-3.97,0-7.22-3.25-7.22-7.22v0C101.71,217.68,104.96,214.43,108.93,214.43z
	"/>
<path class="st3" d="M108.93,214.43h109.12v14.44H108.93c-3.97,0-7.22-3.25-7.22-7.22v0C101.71,217.68,104.96,214.43,108.93,214.43z
	"/>
<path class="st2" d="M121.07,80.44h96.77c2.27,0,4.13,1.86,4.13,4.13v125.81c0,2.27-1.86,4.13-4.13,4.13h-96.77V80.44z"/>
<path class="st3" d="M121.07,80.44h96.77c2.27,0,4.13,1.86,4.13,4.13v125.81c0,2.27-1.86,4.13-4.13,4.13h-96.77V80.44z"/>
<path class="st2" d="M135.37,92.16h74.57c1.64,0,2.98,1.34,2.98,2.98v28.69c0,1.64-1.34,2.98-2.98,2.98h-74.57
	c-1.64,0-2.98-1.34-2.98-2.98V95.13C132.39,93.5,133.73,92.16,135.37,92.16z"/>
<path class="st3" d="M135.37,92.16h74.57c1.64,0,2.98,1.34,2.98,2.98v28.69c0,1.64-1.34,2.98-2.98,2.98h-74.57
	c-1.64,0-2.98-1.34-2.98-2.98V95.13C132.39,93.5,133.73,92.16,135.37,92.16z"/>
<line class="st3" x1="132.39" y1="142.84" x2="212.91" y2="142.84"/>
<line class="st3" x1="132.39" y1="157.01" x2="212.91" y2="157.01"/>
<line class="st3" x1="132.39" y1="205.51" x2="212.91" y2="205.51"/>
<line class="st3" x1="172.65" y1="196.25" x2="212.91" y2="196.25"/>
<polygon class="st2" points="115.61,220.7 140.35,220.7 140.35,241.56 127.9,232.99 115.61,241.56 "/>
<polygon class="st3" points="115.61,220.7 140.35,220.7 140.35,241.56 127.9,232.99 115.61,241.56 "/>
<line class="st3" x1="115.61" y1="220.7" x2="208.1" y2="221.51"/>
<text transform="matrix(1 0 0 1 68.2497 298.8975)" class="st4 st5 st6">&lt;CODE&gt;</text>
<text transform="matrix(1 0 0 1 68.2497 298.8975)" class="st7 st5 st6">&lt;CODE&gt;</text>
</svg>
