<?xml version="1.0" encoding="utf-8"?>
<!-- Generator: Adobe Illustrator 26.0.0, SVG Export Plug-In . SVG Version: 6.00 Build 0)  -->
<svg version="1.1" id="Layer_1" xmlns="http://www.w3.org/2000/svg" xmlns:xlink="http://www.w3.org/1999/xlink" x="0px" y="0px"
	 viewBox="0 0 288.36 288.36" style="enable-background:new 0 0 288.36 288.36;" xml:space="preserve">
<style type="text/css">
	.st0{fill:#036A60;}
	.st1{fill:#00594C;}
	.st2{fill:#E8E8E8;}
	.st3{fill:#E8E8E8;stroke:#2B2B2B;stroke-width:7;stroke-miterlimit:10;}
	.st4{fill:#FFFFFF;}
	.st5{fill:#008CAA;}
	.st6{fill:#D36227;}
	.st7{fill:#E71E25;}
</style>
<rect class="st0" width="288.36" height="288.36"/>
<g>
	<path class="st1" d="M39.14,33.57c-1.23,2.56-2.98,4.52-5.26,5.87c-2.28,1.35-4.97,2.02-8.08,2.02c-2.01,0-3.87-0.29-5.58-0.86
		s-3.25-1.41-4.61-2.53c-1.83-1.48-3.2-3.2-4.12-5.17c-0.92-1.97-1.37-4.16-1.37-6.56c0-4.57,1.49-8.32,4.47-11.24
		c2.98-2.92,6.81-4.38,11.5-4.38c2.69,0,5.04,0.54,7.04,1.62c2,1.08,3.73,2.74,5.2,5l-3.74,2.75c-0.89-1.9-1.99-3.33-3.27-4.28
		s-2.76-1.43-4.42-1.43c-2.53,0-4.5,1.02-5.89,3.07c-1.39,2.04-2.09,4.93-2.09,8.67c0,3.44,0.8,6.22,2.4,8.33s3.69,3.16,6.28,3.16
		c1.64,0,3.13-0.53,4.48-1.59c1.35-1.06,2.53-2.63,3.54-4.71L39.14,33.57z"/>
	<path class="st1" d="M46.94,33.26c0.6,1.42,1.35,2.51,2.25,3.27c0.9,0.76,1.89,1.14,2.98,1.14c1.11,0,2.03-0.33,2.75-0.99
		c0.72-0.66,1.08-1.49,1.08-2.48c0-0.81-0.27-1.53-0.81-2.19c-0.54-0.65-1.43-1.31-2.66-1.99l-1.17-0.64
		c-2.67-1.42-4.27-2.37-4.81-2.83c-1.11-0.97-1.9-1.93-2.36-2.89c-0.46-0.96-0.69-2.08-0.69-3.37c0-2.83,0.95-5.14,2.84-6.93
		c1.9-1.79,4.37-2.69,7.42-2.69c2.14,0,4.01,0.49,5.62,1.46c1.61,0.97,2.87,2.38,3.78,4.21l-3.34,2.33
		c-0.59-1.41-1.33-2.46-2.23-3.16c-0.9-0.7-1.97-1.05-3.22-1.05c-1.04,0-1.9,0.32-2.58,0.97c-0.68,0.64-1.02,1.45-1.02,2.42
		c0,0.82,0.28,1.54,0.85,2.15c0.56,0.62,1.65,1.33,3.26,2.15l0.55,0.29c3,1.49,4.81,2.5,5.43,3.01c1.08,0.89,1.86,1.83,2.34,2.82
		c0.48,0.99,0.71,2.14,0.71,3.46c0,2.89-1.01,5.24-3.02,7.05c-2.01,1.82-4.63,2.72-7.86,2.72c-2.3,0-4.33-0.51-6.1-1.52
		c-1.77-1.01-3.11-2.44-4.03-4.28L46.94,33.26z"/>
	<path class="st1" d="M72.21,33.26c0.6,1.42,1.35,2.51,2.25,3.27c0.9,0.76,1.89,1.14,2.98,1.14c1.11,0,2.03-0.33,2.75-0.99
		c0.72-0.66,1.08-1.49,1.08-2.48c0-0.81-0.27-1.53-0.81-2.19c-0.54-0.65-1.43-1.31-2.66-1.99l-1.17-0.64
		c-2.67-1.42-4.27-2.37-4.81-2.83c-1.11-0.97-1.9-1.93-2.36-2.89c-0.46-0.96-0.69-2.08-0.69-3.37c0-2.83,0.95-5.14,2.84-6.93
		c1.9-1.79,4.37-2.69,7.42-2.69c2.14,0,4.01,0.49,5.62,1.46c1.61,0.97,2.87,2.38,3.78,4.21l-3.34,2.33
		c-0.59-1.41-1.33-2.46-2.23-3.16c-0.9-0.7-1.97-1.05-3.22-1.05c-1.04,0-1.9,0.32-2.58,0.97c-0.68,0.64-1.02,1.45-1.02,2.42
		c0,0.82,0.28,1.54,0.85,2.15c0.56,0.62,1.65,1.33,3.26,2.15l0.55,0.29c3,1.49,4.81,2.5,5.43,3.01c1.08,0.89,1.86,1.83,2.34,2.82
		c0.48,0.99,0.71,2.14,0.71,3.46c0,2.89-1.01,5.24-3.02,7.05c-2.01,1.82-4.63,2.72-7.86,2.72c-2.3,0-4.33-0.51-6.1-1.52
		c-1.77-1.01-3.11-2.44-4.03-4.28L72.21,33.26z"/>
	<path class="st1" d="M104.31,36.91h0.86c2.01,0,3.36-0.43,4.06-1.29c0.7-0.86,1.05-2.83,1.05-5.92V11.36h8.24v19.62
		c0,3.52-0.87,6.04-2.62,7.56s-4.64,2.29-8.68,2.29c-0.78,0-1.37-0.01-1.78-0.02s-0.79-0.04-1.14-0.07V36.91z"/>
	<path class="st1" d="M127.82,33.26c0.6,1.42,1.35,2.51,2.25,3.27c0.9,0.76,1.89,1.14,2.98,1.14c1.11,0,2.03-0.33,2.75-0.99
		c0.72-0.66,1.08-1.49,1.08-2.48c0-0.81-0.27-1.53-0.81-2.19c-0.54-0.65-1.43-1.31-2.66-1.99l-1.17-0.64
		c-2.67-1.42-4.27-2.37-4.81-2.83c-1.11-0.97-1.9-1.93-2.36-2.89c-0.46-0.96-0.69-2.08-0.69-3.37c0-2.83,0.95-5.14,2.84-6.93
		c1.9-1.79,4.37-2.69,7.42-2.69c2.14,0,4.01,0.49,5.62,1.46c1.61,0.97,2.87,2.38,3.78,4.21l-3.34,2.33
		c-0.59-1.41-1.33-2.46-2.23-3.16c-0.9-0.7-1.97-1.05-3.22-1.05c-1.04,0-1.9,0.32-2.58,0.97c-0.68,0.64-1.02,1.45-1.02,2.42
		c0,0.82,0.28,1.54,0.85,2.15c0.56,0.62,1.65,1.33,3.26,2.15l0.55,0.29c3,1.49,4.81,2.5,5.43,3.01c1.08,0.89,1.86,1.83,2.34,2.82
		c0.48,0.99,0.71,2.14,0.71,3.46c0,2.89-1.01,5.24-3.02,7.05c-2.01,1.82-4.63,2.72-7.86,2.72c-2.3,0-4.33-0.51-6.1-1.52
		c-1.77-1.01-3.11-2.44-4.03-4.28L127.82,33.26z"/>
	<path class="st1" d="M180.89,23.9V11.36h8.24v29.38h-8.24V27.86h-8.81v12.88h-8.24V11.36h8.24V23.9H180.89z"/>
	<path class="st1" d="M200.93,40.73V15.31h-7.84v-3.96h23.91v3.96h-7.82v25.42H200.93z"/>
	<path class="st1" d="M220.94,40.73V11.36h7.69l6.61,15.84l6.57-15.84h8.06v29.38h-8.2V21.42l-7.93,19.31h-0.79l-7.76-18.46v18.46
		H220.94z"/>
	<path class="st1" d="M256.98,40.73V11.36h8.24v25.42h10.66v3.96H256.98z"/>
	<path class="st1" d="M39.14,81.57c-1.23,2.56-2.98,4.52-5.26,5.87c-2.28,1.35-4.97,2.02-8.08,2.02c-2.01,0-3.87-0.29-5.58-0.86
		s-3.25-1.41-4.61-2.53c-1.83-1.48-3.2-3.2-4.12-5.17c-0.92-1.97-1.37-4.16-1.37-6.56c0-4.57,1.49-8.32,4.47-11.24
		c2.98-2.92,6.81-4.38,11.5-4.38c2.69,0,5.04,0.54,7.04,1.62c2,1.08,3.73,2.74,5.2,5l-3.74,2.75c-0.89-1.9-1.99-3.33-3.27-4.28
		c-1.29-0.95-2.76-1.43-4.42-1.43c-2.53,0-4.5,1.02-5.89,3.07c-1.39,2.04-2.09,4.93-2.09,8.67c0,3.44,0.8,6.22,2.4,8.33
		s3.69,3.16,6.28,3.16c1.64,0,3.13-0.53,4.48-1.59c1.35-1.06,2.53-2.63,3.54-4.71L39.14,81.57z"/>
	<path class="st1" d="M46.94,81.26c0.6,1.42,1.35,2.51,2.25,3.27c0.9,0.76,1.89,1.14,2.98,1.14c1.11,0,2.03-0.33,2.75-0.99
		c0.72-0.66,1.08-1.49,1.08-2.48c0-0.81-0.27-1.53-0.81-2.19c-0.54-0.65-1.43-1.31-2.66-1.99l-1.17-0.64
		c-2.67-1.42-4.27-2.37-4.81-2.83c-1.11-0.97-1.9-1.93-2.36-2.89c-0.46-0.96-0.69-2.08-0.69-3.37c0-2.83,0.95-5.14,2.84-6.93
		c1.9-1.79,4.37-2.69,7.42-2.69c2.14,0,4.01,0.49,5.62,1.46c1.61,0.97,2.87,2.38,3.78,4.21l-3.34,2.33
		c-0.59-1.41-1.33-2.46-2.23-3.16c-0.9-0.7-1.97-1.05-3.22-1.05c-1.04,0-1.9,0.32-2.58,0.97c-0.68,0.64-1.02,1.45-1.02,2.42
		c0,0.82,0.28,1.54,0.85,2.15c0.56,0.62,1.65,1.33,3.26,2.15l0.55,0.29c3,1.49,4.81,2.5,5.43,3.01c1.08,0.89,1.86,1.83,2.34,2.82
		c0.48,0.99,0.71,2.14,0.71,3.46c0,2.89-1.01,5.24-3.02,7.05c-2.01,1.82-4.63,2.72-7.86,2.72c-2.3,0-4.33-0.51-6.1-1.52
		c-1.77-1.01-3.11-2.44-4.03-4.28L46.94,81.26z"/>
	<path class="st1" d="M72.21,81.26c0.6,1.42,1.35,2.51,2.25,3.27c0.9,0.76,1.89,1.14,2.98,1.14c1.11,0,2.03-0.33,2.75-0.99
		c0.72-0.66,1.08-1.49,1.08-2.48c0-0.81-0.27-1.53-0.81-2.19c-0.54-0.65-1.43-1.31-2.66-1.99l-1.17-0.64
		c-2.67-1.42-4.27-2.37-4.81-2.83c-1.11-0.97-1.9-1.93-2.36-2.89c-0.46-0.96-0.69-2.08-0.69-3.37c0-2.83,0.95-5.14,2.84-6.93
		c1.9-1.79,4.37-2.69,7.42-2.69c2.14,0,4.01,0.49,5.62,1.46c1.61,0.97,2.87,2.38,3.78,4.21l-3.34,2.33
		c-0.59-1.41-1.33-2.46-2.23-3.16c-0.9-0.7-1.97-1.05-3.22-1.05c-1.04,0-1.9,0.32-2.58,0.97c-0.68,0.64-1.02,1.45-1.02,2.42
		c0,0.82,0.28,1.54,0.85,2.15c0.56,0.62,1.65,1.33,3.26,2.15l0.55,0.29c3,1.49,4.81,2.5,5.43,3.01c1.08,0.89,1.86,1.83,2.34,2.82
		c0.48,0.99,0.71,2.14,0.71,3.46c0,2.89-1.01,5.24-3.02,7.05c-2.01,1.82-4.63,2.72-7.86,2.72c-2.3,0-4.33-0.51-6.1-1.52
		c-1.77-1.01-3.11-2.44-4.03-4.28L72.21,81.26z"/>
	<path class="st1" d="M104.31,84.91h0.86c2.01,0,3.36-0.43,4.06-1.29c0.7-0.86,1.05-2.83,1.05-5.92V59.36h8.24v19.62
		c0,3.52-0.87,6.04-2.62,7.56s-4.64,2.29-8.68,2.29c-0.78,0-1.37-0.01-1.78-0.02s-0.79-0.04-1.14-0.07V84.91z"/>
	<path class="st1" d="M127.82,81.26c0.6,1.42,1.35,2.51,2.25,3.27c0.9,0.76,1.89,1.14,2.98,1.14c1.11,0,2.03-0.33,2.75-0.99
		c0.72-0.66,1.08-1.49,1.08-2.48c0-0.81-0.27-1.53-0.81-2.19c-0.54-0.65-1.43-1.31-2.66-1.99l-1.17-0.64
		c-2.67-1.42-4.27-2.37-4.81-2.83c-1.11-0.97-1.9-1.93-2.36-2.89c-0.46-0.96-0.69-2.08-0.69-3.37c0-2.83,0.95-5.14,2.84-6.93
		c1.9-1.79,4.37-2.69,7.42-2.69c2.14,0,4.01,0.49,5.62,1.46c1.61,0.97,2.87,2.38,3.78,4.21l-3.34,2.33
		c-0.59-1.41-1.33-2.46-2.23-3.16c-0.9-0.7-1.97-1.05-3.22-1.05c-1.04,0-1.9,0.32-2.58,0.97c-0.68,0.64-1.02,1.45-1.02,2.42
		c0,0.82,0.28,1.54,0.85,2.15c0.56,0.62,1.65,1.33,3.26,2.15l0.55,0.29c3,1.49,4.81,2.5,5.43,3.01c1.08,0.89,1.86,1.83,2.34,2.82
		c0.48,0.99,0.71,2.14,0.71,3.46c0,2.89-1.01,5.24-3.02,7.05c-2.01,1.82-4.63,2.72-7.86,2.72c-2.3,0-4.33-0.51-6.1-1.52
		c-1.77-1.01-3.11-2.44-4.03-4.28L127.82,81.26z"/>
	<path class="st1" d="M180.89,71.9V59.36h8.24v29.38h-8.24V75.86h-8.81v12.88h-8.24V59.36h8.24V71.9H180.89z"/>
	<path class="st1" d="M200.93,88.73V63.31h-7.84v-3.96h23.91v3.96h-7.82v25.42H200.93z"/>
	<path class="st1" d="M220.94,88.73V59.36h7.69l6.61,15.84l6.57-15.84h8.06v29.38h-8.2V69.42l-7.93,19.31h-0.79l-7.76-18.46v18.46
		H220.94z"/>
	<path class="st1" d="M256.98,88.73V59.36h8.24v25.42h10.66v3.96H256.98z"/>
	<path class="st1" d="M39.14,129.57c-1.23,2.56-2.98,4.52-5.26,5.87c-2.28,1.35-4.97,2.02-8.08,2.02c-2.01,0-3.87-0.29-5.58-0.86
		s-3.25-1.41-4.61-2.53c-1.83-1.48-3.2-3.2-4.12-5.17c-0.92-1.97-1.37-4.16-1.37-6.56c0-4.57,1.49-8.32,4.47-11.24
		c2.98-2.92,6.81-4.38,11.5-4.38c2.69,0,5.04,0.54,7.04,1.62c2,1.08,3.73,2.74,5.2,5l-3.74,2.75c-0.89-1.9-1.99-3.33-3.27-4.28
		s-2.76-1.43-4.42-1.43c-2.53,0-4.5,1.02-5.89,3.07c-1.39,2.04-2.09,4.93-2.09,8.67c0,3.44,0.8,6.22,2.4,8.33s3.69,3.16,6.28,3.16
		c1.64,0,3.13-0.53,4.48-1.59c1.35-1.06,2.53-2.63,3.54-4.71L39.14,129.57z"/>
	<path class="st1" d="M46.94,129.26c0.6,1.42,1.35,2.51,2.25,3.27c0.9,0.76,1.89,1.14,2.98,1.14c1.11,0,2.03-0.33,2.75-0.99
		c0.72-0.66,1.08-1.49,1.08-2.48c0-0.81-0.27-1.53-0.81-2.19c-0.54-0.65-1.43-1.31-2.66-1.99l-1.17-0.64
		c-2.67-1.42-4.27-2.37-4.81-2.83c-1.11-0.97-1.9-1.93-2.36-2.89c-0.46-0.96-0.69-2.08-0.69-3.37c0-2.83,0.95-5.14,2.84-6.93
		c1.9-1.79,4.37-2.69,7.42-2.69c2.14,0,4.01,0.49,5.62,1.46c1.61,0.97,2.87,2.38,3.78,4.21l-3.34,2.33
		c-0.59-1.41-1.33-2.46-2.23-3.16c-0.9-0.7-1.97-1.05-3.22-1.05c-1.04,0-1.9,0.32-2.58,0.97c-0.68,0.64-1.02,1.45-1.02,2.42
		c0,0.82,0.28,1.54,0.85,2.15c0.56,0.62,1.65,1.33,3.26,2.15l0.55,0.29c3,1.49,4.81,2.5,5.43,3.01c1.08,0.89,1.86,1.83,2.34,2.82
		c0.48,0.99,0.71,2.14,0.71,3.46c0,2.89-1.01,5.24-3.02,7.05c-2.01,1.82-4.63,2.72-7.86,2.72c-2.3,0-4.33-0.51-6.1-1.52
		c-1.77-1.01-3.11-2.44-4.03-4.28L46.94,129.26z"/>
	<path class="st1" d="M72.21,129.26c0.6,1.42,1.35,2.51,2.25,3.27c0.9,0.76,1.89,1.14,2.98,1.14c1.11,0,2.03-0.33,2.75-0.99
		c0.72-0.66,1.08-1.49,1.08-2.48c0-0.81-0.27-1.53-0.81-2.19c-0.54-0.65-1.43-1.31-2.66-1.99l-1.17-0.64
		c-2.67-1.42-4.27-2.37-4.81-2.83c-1.11-0.97-1.9-1.93-2.36-2.89c-0.46-0.96-0.69-2.08-0.69-3.37c0-2.83,0.95-5.14,2.84-6.93
		c1.9-1.79,4.37-2.69,7.42-2.69c2.14,0,4.01,0.49,5.62,1.46c1.61,0.97,2.87,2.38,3.78,4.21l-3.34,2.33
		c-0.59-1.41-1.33-2.46-2.23-3.16c-0.9-0.7-1.97-1.05-3.22-1.05c-1.04,0-1.9,0.32-2.58,0.97c-0.68,0.64-1.02,1.45-1.02,2.42
		c0,0.82,0.28,1.54,0.85,2.15c0.56,0.62,1.65,1.33,3.26,2.15l0.55,0.29c3,1.49,4.81,2.5,5.43,3.01c1.08,0.89,1.86,1.83,2.34,2.82
		c0.48,0.99,0.71,2.14,0.71,3.46c0,2.89-1.01,5.24-3.02,7.05c-2.01,1.82-4.63,2.72-7.86,2.72c-2.3,0-4.33-0.51-6.1-1.52
		c-1.77-1.01-3.11-2.44-4.03-4.28L72.21,129.26z"/>
	<path class="st1" d="M104.31,132.91h0.86c2.01,0,3.36-0.43,4.06-1.29c0.7-0.86,1.05-2.83,1.05-5.92v-18.35h8.24v19.62
		c0,3.52-0.87,6.04-2.62,7.56s-4.64,2.29-8.68,2.29c-0.78,0-1.37-0.01-1.78-0.02s-0.79-0.04-1.14-0.07V132.91z"/>
	<path class="st1" d="M127.82,129.26c0.6,1.42,1.35,2.51,2.25,3.27c0.9,0.76,1.89,1.14,2.98,1.14c1.11,0,2.03-0.33,2.75-0.99
		c0.72-0.66,1.08-1.49,1.08-2.48c0-0.81-0.27-1.53-0.81-2.19c-0.54-0.65-1.43-1.31-2.66-1.99l-1.17-0.64
		c-2.67-1.42-4.27-2.37-4.81-2.83c-1.11-0.97-1.9-1.93-2.36-2.89c-0.46-0.96-0.69-2.08-0.69-3.37c0-2.83,0.95-5.14,2.84-6.93
		c1.9-1.79,4.37-2.69,7.42-2.69c2.14,0,4.01,0.49,5.62,1.46c1.61,0.97,2.87,2.38,3.78,4.21l-3.34,2.33
		c-0.59-1.41-1.33-2.46-2.23-3.16c-0.9-0.7-1.97-1.05-3.22-1.05c-1.04,0-1.9,0.32-2.58,0.97c-0.68,0.64-1.02,1.45-1.02,2.42
		c0,0.82,0.28,1.54,0.85,2.15c0.56,0.62,1.65,1.33,3.26,2.15l0.55,0.29c3,1.49,4.81,2.5,5.43,3.01c1.08,0.89,1.86,1.83,2.34,2.82
		c0.48,0.99,0.71,2.14,0.71,3.46c0,2.89-1.01,5.24-3.02,7.05c-2.01,1.82-4.63,2.72-7.86,2.72c-2.3,0-4.33-0.51-6.1-1.52
		c-1.77-1.01-3.11-2.44-4.03-4.28L127.82,129.26z"/>
	<path class="st1" d="M180.89,119.9v-12.55h8.24v29.38h-8.24v-12.88h-8.81v12.88h-8.24v-29.38h8.24v12.55H180.89z"/>
	<path class="st1" d="M200.93,136.73v-25.42h-7.84v-3.96h23.91v3.96h-7.82v25.42H200.93z"/>
	<path class="st1" d="M220.94,136.73v-29.38h7.69l6.61,15.84l6.57-15.84h8.06v29.38h-8.2v-19.31l-7.93,19.31h-0.79l-7.76-18.46
		v18.46H220.94z"/>
	<path class="st1" d="M256.98,136.73v-29.38h8.24v25.42h10.66v3.96H256.98z"/>
	<path class="st1" d="M39.14,177.57c-1.23,2.56-2.98,4.52-5.26,5.87c-2.28,1.35-4.97,2.02-8.08,2.02c-2.01,0-3.87-0.29-5.58-0.86
		c-1.71-0.57-3.25-1.41-4.61-2.53c-1.83-1.48-3.2-3.2-4.12-5.17c-0.92-1.97-1.37-4.16-1.37-6.56c0-4.57,1.49-8.32,4.47-11.24
		c2.98-2.92,6.81-4.38,11.5-4.38c2.69,0,5.04,0.54,7.04,1.62c2,1.08,3.73,2.74,5.2,5l-3.74,2.75c-0.89-1.9-1.99-3.33-3.27-4.28
		s-2.76-1.43-4.42-1.43c-2.53,0-4.5,1.02-5.89,3.07c-1.39,2.04-2.09,4.93-2.09,8.67c0,3.44,0.8,6.22,2.4,8.33s3.69,3.16,6.28,3.16
		c1.64,0,3.13-0.53,4.48-1.59s2.53-2.63,3.54-4.71L39.14,177.57z"/>
	<path class="st1" d="M46.94,177.26c0.6,1.42,1.35,2.51,2.25,3.27c0.9,0.76,1.89,1.14,2.98,1.14c1.11,0,2.03-0.33,2.75-0.99
		c0.72-0.66,1.08-1.49,1.08-2.48c0-0.81-0.27-1.53-0.81-2.19c-0.54-0.65-1.43-1.31-2.66-1.99l-1.17-0.64
		c-2.67-1.42-4.27-2.37-4.81-2.83c-1.11-0.97-1.9-1.93-2.36-2.89c-0.46-0.96-0.69-2.08-0.69-3.37c0-2.83,0.95-5.14,2.84-6.93
		c1.9-1.79,4.37-2.69,7.42-2.69c2.14,0,4.01,0.49,5.62,1.46c1.61,0.97,2.87,2.38,3.78,4.21l-3.34,2.33
		c-0.59-1.41-1.33-2.46-2.23-3.16c-0.9-0.7-1.97-1.05-3.22-1.05c-1.04,0-1.9,0.32-2.58,0.97c-0.68,0.64-1.02,1.45-1.02,2.42
		c0,0.82,0.28,1.54,0.85,2.15c0.56,0.62,1.65,1.33,3.26,2.15l0.55,0.29c3,1.49,4.81,2.5,5.43,3.01c1.08,0.89,1.86,1.83,2.34,2.82
		c0.48,0.99,0.71,2.14,0.71,3.46c0,2.89-1.01,5.24-3.02,7.05c-2.01,1.82-4.63,2.72-7.86,2.72c-2.3,0-4.33-0.51-6.1-1.52
		c-1.77-1.01-3.11-2.44-4.03-4.29L46.94,177.26z"/>
	<path class="st1" d="M72.21,177.26c0.6,1.42,1.35,2.51,2.25,3.27c0.9,0.76,1.89,1.14,2.98,1.14c1.11,0,2.03-0.33,2.75-0.99
		c0.72-0.66,1.08-1.49,1.08-2.48c0-0.81-0.27-1.53-0.81-2.19c-0.54-0.65-1.43-1.31-2.66-1.99l-1.17-0.64
		c-2.67-1.42-4.27-2.37-4.81-2.83c-1.11-0.97-1.9-1.93-2.36-2.89c-0.46-0.96-0.69-2.08-0.69-3.37c0-2.83,0.95-5.14,2.84-6.93
		c1.9-1.79,4.37-2.69,7.42-2.69c2.14,0,4.01,0.49,5.62,1.46c1.61,0.97,2.87,2.38,3.78,4.21l-3.34,2.33
		c-0.59-1.41-1.33-2.46-2.23-3.16c-0.9-0.7-1.97-1.05-3.22-1.05c-1.04,0-1.9,0.32-2.58,0.97c-0.68,0.64-1.02,1.45-1.02,2.42
		c0,0.82,0.28,1.54,0.85,2.15c0.56,0.62,1.65,1.33,3.26,2.15l0.55,0.29c3,1.49,4.81,2.5,5.43,3.01c1.08,0.89,1.86,1.83,2.34,2.82
		c0.48,0.99,0.71,2.14,0.71,3.46c0,2.89-1.01,5.24-3.02,7.05c-2.01,1.82-4.63,2.72-7.86,2.72c-2.3,0-4.33-0.51-6.1-1.52
		c-1.77-1.01-3.11-2.44-4.03-4.29L72.21,177.26z"/>
	<path class="st1" d="M104.31,180.91h0.86c2.01,0,3.36-0.43,4.06-1.29c0.7-0.86,1.05-2.83,1.05-5.92v-18.35h8.24v19.62
		c0,3.52-0.87,6.03-2.62,7.56s-4.64,2.29-8.68,2.29c-0.78,0-1.37-0.01-1.78-0.02s-0.79-0.04-1.14-0.07V180.91z"/>
	<path class="st1" d="M127.82,177.26c0.6,1.42,1.35,2.51,2.25,3.27c0.9,0.76,1.89,1.14,2.98,1.14c1.11,0,2.03-0.33,2.75-0.99
		c0.72-0.66,1.08-1.49,1.08-2.48c0-0.81-0.27-1.53-0.81-2.19c-0.54-0.65-1.43-1.31-2.66-1.99l-1.17-0.64
		c-2.67-1.42-4.27-2.37-4.81-2.83c-1.11-0.97-1.9-1.93-2.36-2.89c-0.46-0.96-0.69-2.08-0.69-3.37c0-2.83,0.95-5.14,2.84-6.93
		c1.9-1.79,4.37-2.69,7.42-2.69c2.14,0,4.01,0.49,5.62,1.46c1.61,0.97,2.87,2.38,3.78,4.21l-3.34,2.33
		c-0.59-1.41-1.33-2.46-2.23-3.16c-0.9-0.7-1.97-1.05-3.22-1.05c-1.04,0-1.9,0.32-2.58,0.97c-0.68,0.64-1.02,1.45-1.02,2.42
		c0,0.82,0.28,1.54,0.85,2.15c0.56,0.62,1.65,1.33,3.26,2.15l0.55,0.29c3,1.49,4.81,2.5,5.43,3.01c1.08,0.89,1.86,1.83,2.34,2.82
		c0.48,0.99,0.71,2.14,0.71,3.46c0,2.89-1.01,5.24-3.02,7.05c-2.01,1.82-4.63,2.72-7.86,2.72c-2.3,0-4.33-0.51-6.1-1.52
		c-1.77-1.01-3.11-2.44-4.03-4.29L127.82,177.26z"/>
	<path class="st1" d="M180.89,167.9v-12.55h8.24v29.38h-8.24v-12.88h-8.81v12.88h-8.24v-29.38h8.24v12.55H180.89z"/>
	<path class="st1" d="M200.93,184.73v-25.42h-7.84v-3.96h23.91v3.96h-7.82v25.42H200.93z"/>
	<path class="st1" d="M220.94,184.73v-29.38h7.69l6.61,15.84l6.57-15.84h8.06v29.38h-8.2v-19.31l-7.93,19.31h-0.79l-7.76-18.46
		v18.46H220.94z"/>
	<path class="st1" d="M256.98,184.73v-29.38h8.24v25.42h10.66v3.96H256.98z"/>
	<path class="st1" d="M39.14,225.57c-1.23,2.56-2.98,4.52-5.26,5.87c-2.28,1.35-4.97,2.02-8.08,2.02c-2.01,0-3.87-0.29-5.58-0.86
		s-3.25-1.41-4.61-2.53c-1.83-1.48-3.2-3.21-4.12-5.17c-0.92-1.97-1.37-4.16-1.37-6.56c0-4.57,1.49-8.32,4.47-11.24
		c2.98-2.92,6.81-4.38,11.5-4.38c2.69,0,5.04,0.54,7.04,1.62c2,1.08,3.73,2.74,5.2,5l-3.74,2.75c-0.89-1.9-1.99-3.33-3.27-4.29
		c-1.29-0.95-2.76-1.43-4.42-1.43c-2.53,0-4.5,1.02-5.89,3.07c-1.39,2.04-2.09,4.93-2.09,8.67c0,3.44,0.8,6.22,2.4,8.33
		s3.69,3.16,6.28,3.16c1.64,0,3.13-0.53,4.48-1.59c1.35-1.06,2.53-2.63,3.54-4.71L39.14,225.57z"/>
	<path class="st1" d="M46.94,225.26c0.6,1.42,1.35,2.51,2.25,3.27c0.9,0.76,1.89,1.14,2.98,1.14c1.11,0,2.03-0.33,2.75-0.99
		c0.72-0.66,1.08-1.49,1.08-2.48c0-0.81-0.27-1.54-0.81-2.19c-0.54-0.65-1.43-1.31-2.66-1.99l-1.17-0.64
		c-2.67-1.42-4.27-2.37-4.81-2.83c-1.11-0.97-1.9-1.93-2.36-2.89c-0.46-0.96-0.69-2.08-0.69-3.37c0-2.83,0.95-5.14,2.84-6.93
		c1.9-1.79,4.37-2.69,7.42-2.69c2.14,0,4.01,0.49,5.62,1.46c1.61,0.97,2.87,2.38,3.78,4.21l-3.34,2.33
		c-0.59-1.41-1.33-2.46-2.23-3.16c-0.9-0.7-1.97-1.05-3.22-1.05c-1.04,0-1.9,0.32-2.58,0.97c-0.68,0.64-1.02,1.45-1.02,2.42
		c0,0.82,0.28,1.54,0.85,2.15c0.56,0.62,1.65,1.33,3.26,2.15l0.55,0.29c3,1.49,4.81,2.5,5.43,3.01c1.08,0.89,1.86,1.83,2.34,2.82
		c0.48,0.99,0.71,2.14,0.71,3.46c0,2.89-1.01,5.24-3.02,7.05c-2.01,1.82-4.63,2.72-7.86,2.72c-2.3,0-4.33-0.51-6.1-1.52
		c-1.77-1.01-3.11-2.44-4.03-4.28L46.94,225.26z"/>
	<path class="st1" d="M72.21,225.26c0.6,1.42,1.35,2.51,2.25,3.27c0.9,0.76,1.89,1.14,2.98,1.14c1.11,0,2.03-0.33,2.75-0.99
		c0.72-0.66,1.08-1.49,1.08-2.48c0-0.81-0.27-1.54-0.81-2.19c-0.54-0.65-1.43-1.31-2.66-1.99l-1.17-0.64
		c-2.67-1.42-4.27-2.37-4.81-2.83c-1.11-0.97-1.9-1.93-2.36-2.89c-0.46-0.96-0.69-2.08-0.69-3.37c0-2.83,0.95-5.14,2.84-6.93
		c1.9-1.79,4.37-2.69,7.42-2.69c2.14,0,4.01,0.49,5.62,1.46c1.61,0.97,2.87,2.38,3.78,4.21l-3.34,2.33
		c-0.59-1.41-1.33-2.46-2.23-3.16c-0.9-0.7-1.97-1.05-3.22-1.05c-1.04,0-1.9,0.32-2.58,0.97c-0.68,0.64-1.02,1.45-1.02,2.42
		c0,0.82,0.28,1.54,0.85,2.15c0.56,0.62,1.65,1.33,3.26,2.15l0.55,0.29c3,1.49,4.81,2.5,5.43,3.01c1.08,0.89,1.86,1.83,2.34,2.82
		c0.48,0.99,0.71,2.14,0.71,3.46c0,2.89-1.01,5.24-3.02,7.05c-2.01,1.82-4.63,2.72-7.86,2.72c-2.3,0-4.33-0.51-6.1-1.52
		c-1.77-1.01-3.11-2.44-4.03-4.28L72.21,225.26z"/>
	<path class="st1" d="M104.31,228.91h0.86c2.01,0,3.36-0.43,4.06-1.29c0.7-0.86,1.05-2.83,1.05-5.92v-18.35h8.24v19.62
		c0,3.52-0.87,6.04-2.62,7.56s-4.64,2.29-8.68,2.29c-0.78,0-1.37-0.01-1.78-0.02c-0.41-0.02-0.79-0.04-1.14-0.07V228.91z"/>
	<path class="st1" d="M127.82,225.26c0.6,1.42,1.35,2.51,2.25,3.27c0.9,0.76,1.89,1.14,2.98,1.14c1.11,0,2.03-0.33,2.75-0.99
		c0.72-0.66,1.08-1.49,1.08-2.48c0-0.81-0.27-1.54-0.81-2.19c-0.54-0.65-1.43-1.31-2.66-1.99l-1.17-0.64
		c-2.67-1.42-4.27-2.37-4.81-2.83c-1.11-0.97-1.9-1.93-2.36-2.89c-0.46-0.96-0.69-2.08-0.69-3.37c0-2.83,0.95-5.14,2.84-6.93
		c1.9-1.79,4.37-2.69,7.42-2.69c2.14,0,4.01,0.49,5.62,1.46c1.61,0.97,2.87,2.38,3.78,4.21l-3.34,2.33
		c-0.59-1.41-1.33-2.46-2.23-3.16c-0.9-0.7-1.97-1.05-3.22-1.05c-1.04,0-1.9,0.32-2.58,0.97c-0.68,0.64-1.02,1.45-1.02,2.42
		c0,0.82,0.28,1.54,0.85,2.15c0.56,0.62,1.65,1.33,3.26,2.15l0.55,0.29c3,1.49,4.81,2.5,5.43,3.01c1.08,0.89,1.86,1.83,2.34,2.82
		c0.48,0.99,0.71,2.14,0.71,3.46c0,2.89-1.01,5.24-3.02,7.05c-2.01,1.82-4.63,2.72-7.86,2.72c-2.3,0-4.33-0.51-6.1-1.52
		c-1.77-1.01-3.11-2.44-4.03-4.28L127.82,225.26z"/>
	<path class="st1" d="M180.89,215.9v-12.55h8.24v29.38h-8.24v-12.88h-8.81v12.88h-8.24v-29.38h8.24v12.55H180.89z"/>
	<path class="st1" d="M200.93,232.73v-25.42h-7.84v-3.96h23.91v3.96h-7.82v25.42H200.93z"/>
	<path class="st1" d="M220.94,232.73v-29.38h7.69l6.61,15.84l6.57-15.84h8.06v29.38h-8.2v-19.31l-7.93,19.31h-0.79l-7.76-18.46
		v18.46H220.94z"/>
	<path class="st1" d="M256.98,232.73v-29.38h8.24v25.42h10.66v3.96H256.98z"/>
	<path class="st1" d="M39.14,273.57c-1.23,2.56-2.98,4.52-5.26,5.87c-2.28,1.35-4.97,2.02-8.08,2.02c-2.01,0-3.87-0.29-5.58-0.86
		s-3.25-1.41-4.61-2.53c-1.83-1.48-3.2-3.21-4.12-5.17c-0.92-1.97-1.37-4.16-1.37-6.56c0-4.57,1.49-8.32,4.47-11.24
		c2.98-2.92,6.81-4.38,11.5-4.38c2.69,0,5.04,0.54,7.04,1.62c2,1.08,3.73,2.74,5.2,5l-3.74,2.75c-0.89-1.9-1.99-3.33-3.27-4.29
		c-1.29-0.95-2.76-1.43-4.42-1.43c-2.53,0-4.5,1.02-5.89,3.07c-1.39,2.04-2.09,4.93-2.09,8.67c0,3.44,0.8,6.22,2.4,8.33
		s3.69,3.16,6.28,3.16c1.64,0,3.13-0.53,4.48-1.59c1.35-1.06,2.53-2.63,3.54-4.71L39.14,273.57z"/>
	<path class="st1" d="M46.94,273.26c0.6,1.42,1.35,2.51,2.25,3.27c0.9,0.76,1.89,1.14,2.98,1.14c1.11,0,2.03-0.33,2.75-0.99
		c0.72-0.66,1.08-1.49,1.08-2.48c0-0.81-0.27-1.54-0.81-2.19c-0.54-0.65-1.43-1.31-2.66-1.99l-1.17-0.64
		c-2.67-1.42-4.27-2.37-4.81-2.83c-1.11-0.97-1.9-1.93-2.36-2.89c-0.46-0.96-0.69-2.08-0.69-3.37c0-2.83,0.95-5.14,2.84-6.93
		c1.9-1.79,4.37-2.69,7.42-2.69c2.14,0,4.01,0.49,5.62,1.46c1.61,0.97,2.87,2.38,3.78,4.21l-3.34,2.33
		c-0.59-1.41-1.33-2.46-2.23-3.16c-0.9-0.7-1.97-1.05-3.22-1.05c-1.04,0-1.9,0.32-2.58,0.97c-0.68,0.64-1.02,1.45-1.02,2.42
		c0,0.82,0.28,1.54,0.85,2.15c0.56,0.62,1.65,1.33,3.26,2.15l0.55,0.29c3,1.49,4.81,2.5,5.43,3.01c1.08,0.89,1.86,1.83,2.34,2.82
		c0.48,0.99,0.71,2.14,0.71,3.46c0,2.89-1.01,5.24-3.02,7.05c-2.01,1.82-4.63,2.72-7.86,2.72c-2.3,0-4.33-0.51-6.1-1.52
		c-1.77-1.01-3.11-2.44-4.03-4.28L46.94,273.26z"/>
	<path class="st1" d="M72.21,273.26c0.6,1.42,1.35,2.51,2.25,3.27c0.9,0.76,1.89,1.14,2.98,1.14c1.11,0,2.03-0.33,2.75-0.99
		c0.72-0.66,1.08-1.49,1.08-2.48c0-0.81-0.27-1.54-0.81-2.19c-0.54-0.65-1.43-1.31-2.66-1.99l-1.17-0.64
		c-2.67-1.42-4.27-2.37-4.81-2.83c-1.11-0.97-1.9-1.93-2.36-2.89c-0.46-0.96-0.69-2.08-0.69-3.37c0-2.83,0.95-5.14,2.84-6.93
		c1.9-1.79,4.37-2.69,7.42-2.69c2.14,0,4.01,0.49,5.62,1.46c1.61,0.97,2.87,2.38,3.78,4.21l-3.34,2.33
		c-0.59-1.41-1.33-2.46-2.23-3.16c-0.9-0.7-1.97-1.05-3.22-1.05c-1.04,0-1.9,0.32-2.58,0.97c-0.68,0.64-1.02,1.45-1.02,2.42
		c0,0.82,0.28,1.54,0.85,2.15c0.56,0.62,1.65,1.33,3.26,2.15l0.55,0.29c3,1.49,4.81,2.5,5.43,3.01c1.08,0.89,1.86,1.83,2.34,2.82
		c0.48,0.99,0.71,2.14,0.71,3.46c0,2.89-1.01,5.24-3.02,7.05c-2.01,1.82-4.63,2.72-7.86,2.72c-2.3,0-4.33-0.51-6.1-1.52
		c-1.77-1.01-3.11-2.44-4.03-4.28L72.21,273.26z"/>
	<path class="st1" d="M104.31,276.91h0.86c2.01,0,3.36-0.43,4.06-1.29c0.7-0.86,1.05-2.83,1.05-5.92v-18.35h8.24v19.62
		c0,3.52-0.87,6.04-2.62,7.56s-4.64,2.29-8.68,2.29c-0.78,0-1.37-0.01-1.78-0.02c-0.41-0.02-0.79-0.04-1.14-0.07V276.91z"/>
	<path class="st1" d="M127.82,273.26c0.6,1.42,1.35,2.51,2.25,3.27c0.9,0.76,1.89,1.14,2.98,1.14c1.11,0,2.03-0.33,2.75-0.99
		c0.72-0.66,1.08-1.49,1.08-2.48c0-0.81-0.27-1.54-0.81-2.19c-0.54-0.65-1.43-1.31-2.66-1.99l-1.17-0.64
		c-2.67-1.42-4.27-2.37-4.81-2.83c-1.11-0.97-1.9-1.93-2.36-2.89c-0.46-0.96-0.69-2.08-0.69-3.37c0-2.83,0.95-5.14,2.84-6.93
		c1.9-1.79,4.37-2.69,7.42-2.69c2.14,0,4.01,0.49,5.62,1.46c1.61,0.97,2.87,2.38,3.78,4.21l-3.34,2.33
		c-0.59-1.41-1.33-2.46-2.23-3.16c-0.9-0.7-1.97-1.05-3.22-1.05c-1.04,0-1.9,0.32-2.58,0.97c-0.68,0.64-1.02,1.45-1.02,2.42
		c0,0.82,0.28,1.54,0.85,2.15c0.56,0.62,1.65,1.33,3.26,2.15l0.55,0.29c3,1.49,4.81,2.5,5.43,3.01c1.08,0.89,1.86,1.83,2.34,2.82
		c0.48,0.99,0.71,2.14,0.71,3.46c0,2.89-1.01,5.24-3.02,7.05c-2.01,1.82-4.63,2.72-7.86,2.72c-2.3,0-4.33-0.51-6.1-1.52
		c-1.77-1.01-3.11-2.44-4.03-4.28L127.82,273.26z"/>
	<path class="st1" d="M180.89,263.9v-12.55h8.24v29.38h-8.24v-12.88h-8.81v12.88h-8.24v-29.38h8.24v12.55H180.89z"/>
	<path class="st1" d="M200.93,280.73v-25.42h-7.84v-3.96h23.91v3.96h-7.82v25.42H200.93z"/>
	<path class="st1" d="M220.94,280.73v-29.38h7.69l6.61,15.84l6.57-15.84h8.06v29.38h-8.2v-19.31l-7.93,19.31h-0.79l-7.76-18.46
		v18.46H220.94z"/>
	<path class="st1" d="M256.98,280.73v-29.38h8.24v25.42h10.66v3.96H256.98z"/>
</g>
<path class="st2" d="M167.28,206.16H45.36c-6.1,0-11.04-4.94-11.04-11.04V32.88c0-6.1,4.94-11.04,11.04-11.04h121.92
	c6.1,0,11.04,4.94,11.04,11.04v162.24C178.32,201.22,173.38,206.16,167.28,206.16z"/>
<g>
	<line class="st3" x1="46.8" y1="39.12" x2="159.12" y2="39.12"/>
	<line class="st3" x1="46.8" y1="65.52" x2="159.12" y2="65.52"/>
	<line class="st3" x1="46.8" y1="89.52" x2="159.12" y2="89.52"/>
	<line class="st3" x1="46.8" y1="108.72" x2="159.12" y2="108.72"/>
	<line class="st3" x1="46.8" y1="135.12" x2="159.12" y2="135.12"/>
	<line class="st3" x1="46.8" y1="159.12" x2="159.12" y2="159.12"/>
</g>
<path class="st4" d="M197.76,232.56H72.48c-5.17,0-9.36-4.19-9.36-9.36V57.6c0-5.17,4.19-9.36,9.36-9.36h125.28
	c5.17,0,9.36,4.19,9.36,9.36v165.6C207.12,228.37,202.93,232.56,197.76,232.56z"/>
<g>
	<line class="st3" x1="78.96" y1="80.4" x2="191.28" y2="80.4"/>
	<line class="st3" x1="78.96" y1="106.8" x2="191.28" y2="106.8"/>
	<line class="st3" x1="78.96" y1="130.8" x2="191.28" y2="130.8"/>
	<line class="st3" x1="78.96" y1="150" x2="191.28" y2="150"/>
	<line class="st3" x1="78.96" y1="176.4" x2="191.28" y2="176.4"/>
	<line class="st3" x1="78.96" y1="200.4" x2="191.28" y2="200.4"/>
</g>
<path class="st4" d="M226.95,261.36H61.41c-14.2,0-25.71-11.51-25.71-25.71v-50.82c0-14.2,11.51-25.71,25.71-25.71h165.54
	c14.2,0,25.71,11.51,25.71,25.71v50.82C252.66,249.85,241.15,261.36,226.95,261.36z"/>
<g>
	<path class="st5" d="M100.25,197.71c-1.45,3.02-3.52,5.33-6.21,6.92c-2.69,1.59-5.86,2.38-9.52,2.38c-2.37,0-4.56-0.34-6.58-1.01
		s-3.84-1.67-5.44-2.98c-2.16-1.75-3.78-3.78-4.86-6.1c-1.08-2.32-1.62-4.9-1.62-7.74c0-5.39,1.76-9.81,5.27-13.26
		c3.52-3.45,8.04-5.17,13.57-5.17c3.18,0,5.95,0.64,8.31,1.91c2.36,1.27,4.4,3.24,6.13,5.9l-4.41,3.24
		c-1.05-2.25-2.34-3.93-3.86-5.05s-3.26-1.69-5.21-1.69c-2.99,0-5.3,1.21-6.95,3.62c-1.64,2.41-2.46,5.82-2.46,10.22
		c0,4.06,0.94,7.33,2.83,9.82c1.88,2.49,4.35,3.73,7.41,3.73c1.94,0,3.7-0.63,5.29-1.88s2.98-3.11,4.17-5.56L100.25,197.71z"/>
	<path class="st5" d="M109.45,197.35c0.71,1.68,1.59,2.96,2.66,3.86c1.06,0.9,2.23,1.35,3.51,1.35c1.31,0,2.39-0.39,3.24-1.17
		c0.85-0.78,1.27-1.75,1.27-2.93c0-0.95-0.32-1.81-0.96-2.58c-0.64-0.77-1.68-1.55-3.14-2.35l-1.37-0.75
		c-3.15-1.68-5.04-2.79-5.68-3.34c-1.31-1.14-2.24-2.28-2.79-3.41c-0.54-1.13-0.82-2.46-0.82-3.98c0-3.33,1.12-6.06,3.36-8.18
		c2.24-2.12,5.15-3.17,8.75-3.17c2.52,0,4.73,0.57,6.63,1.72c1.9,1.15,3.39,2.8,4.46,4.96l-3.94,2.75c-0.69-1.66-1.57-2.9-2.63-3.73
		c-1.06-0.83-2.33-1.24-3.8-1.24c-1.23,0-2.24,0.38-3.05,1.14c-0.8,0.76-1.21,1.71-1.21,2.85c0,0.97,0.33,1.81,1,2.54
		c0.67,0.73,1.95,1.57,3.85,2.54l0.65,0.34c3.54,1.76,5.68,2.95,6.4,3.55c1.28,1.05,2.2,2.16,2.76,3.33
		c0.56,1.17,0.84,2.53,0.84,4.08c0,3.4-1.19,6.18-3.56,8.32c-2.38,2.14-5.46,3.21-9.27,3.21c-2.71,0-5.11-0.6-7.19-1.79
		c-2.08-1.19-3.67-2.88-4.76-5.05L109.45,197.35z"/>
	<path class="st5" d="M139.26,197.35c0.71,1.68,1.59,2.96,2.66,3.86c1.06,0.9,2.23,1.35,3.51,1.35c1.31,0,2.39-0.39,3.24-1.17
		c0.85-0.78,1.27-1.75,1.27-2.93c0-0.95-0.32-1.81-0.96-2.58c-0.64-0.77-1.69-1.55-3.14-2.35l-1.37-0.75
		c-3.15-1.68-5.04-2.79-5.68-3.34c-1.31-1.14-2.24-2.28-2.79-3.41c-0.54-1.13-0.82-2.46-0.82-3.98c0-3.33,1.12-6.06,3.36-8.18
		c2.24-2.12,5.15-3.17,8.75-3.17c2.52,0,4.73,0.57,6.64,1.72c1.9,1.15,3.38,2.8,4.46,4.96l-3.94,2.75c-0.69-1.66-1.57-2.9-2.63-3.73
		c-1.06-0.83-2.33-1.24-3.8-1.24c-1.23,0-2.24,0.38-3.05,1.14c-0.8,0.76-1.21,1.71-1.21,2.85c0,0.97,0.33,1.81,1,2.54
		c0.67,0.73,1.95,1.57,3.85,2.54l0.65,0.34c3.54,1.76,5.68,2.95,6.4,3.55c1.28,1.05,2.2,2.16,2.76,3.33
		c0.56,1.17,0.84,2.53,0.84,4.08c0,3.4-1.19,6.18-3.56,8.32c-2.38,2.14-5.46,3.21-9.27,3.21c-2.71,0-5.11-0.6-7.19-1.79
		c-2.08-1.19-3.67-2.88-4.76-5.05L139.26,197.35z"/>
	<path class="st6" d="M177.12,201.65h1.01c2.37,0,3.97-0.51,4.79-1.52c0.83-1.01,1.24-3.34,1.24-6.98v-21.64h9.72v23.15
		c0,4.15-1.03,7.12-3.08,8.92c-2.06,1.8-5.47,2.7-10.24,2.7c-0.92,0-1.62-0.01-2.1-0.03c-0.48-0.02-0.93-0.04-1.35-0.08V201.65z"/>
	<path class="st6" d="M204.85,197.35c0.71,1.68,1.59,2.96,2.66,3.86s2.23,1.35,3.51,1.35c1.31,0,2.39-0.39,3.24-1.17
		c0.85-0.78,1.27-1.75,1.27-2.93c0-0.95-0.32-1.81-0.96-2.58c-0.64-0.77-1.68-1.55-3.14-2.35l-1.37-0.75
		c-3.14-1.68-5.04-2.79-5.68-3.34c-1.31-1.14-2.24-2.28-2.79-3.41c-0.54-1.13-0.82-2.46-0.82-3.98c0-3.33,1.12-6.06,3.36-8.18
		c2.24-2.12,5.15-3.17,8.75-3.17c2.52,0,4.73,0.57,6.64,1.72c1.9,1.15,3.39,2.8,4.46,4.96l-3.94,2.75c-0.69-1.66-1.57-2.9-2.63-3.73
		c-1.06-0.83-2.33-1.24-3.8-1.24c-1.23,0-2.24,0.38-3.04,1.14c-0.8,0.76-1.21,1.71-1.21,2.85c0,0.97,0.33,1.81,1,2.54
		c0.67,0.73,1.95,1.57,3.85,2.54l0.65,0.34c3.54,1.76,5.68,2.95,6.4,3.55c1.28,1.05,2.2,2.16,2.76,3.33s0.84,2.53,0.84,4.08
		c0,3.4-1.19,6.18-3.56,8.32c-2.38,2.14-5.46,3.21-9.27,3.21c-2.71,0-5.11-0.6-7.19-1.79c-2.08-1.19-3.67-2.88-4.76-5.05
		L204.85,197.35z"/>
	<path class="st7" d="M100.93,234.31v-14.8h9.72v34.65h-9.72v-15.19H90.54v15.19h-9.72v-34.65h9.72v14.8H100.93z"/>
	<path class="st7" d="M124.57,254.16v-29.99h-9.25v-4.67h28.2v4.67h-9.23v29.99H124.57z"/>
	<path class="st7" d="M148.18,254.16v-34.65h9.07l7.8,18.69l7.75-18.69h9.51v34.65h-9.67v-22.78l-9.36,22.78h-0.93l-9.15-21.77
		v21.77H148.18z"/>
	<path class="st7" d="M190.69,254.16v-34.65h9.72v29.99h12.57v4.67H190.69z"/>
</g>
</svg>
