<svg id="Layer_1" data-name="Layer 1" xmlns="http://www.w3.org/2000/svg" viewBox="0 0 289.36 291.89"><defs><style>.cls-1{fill:#036a60;stroke:#fff;}.cls-1,.cls-5{stroke-miterlimit:10;}.cls-2{font-size:45px;fill:#00594c;}.cls-2,.cls-7{font-family:Exotic350BT-Bold, Exotc350 Bd BT;font-weight:700;}.cls-3{letter-spacing:0.02em;}.cls-4,.cls-5{fill:#e8e8e8;}.cls-5{stroke:#2b2b2b;stroke-width:7px;}.cls-6{fill:#fff;}.cls-7{font-size:53.08px;fill:#008caa;}.cls-8{letter-spacing:0.02em;}.cls-9{letter-spacing:0em;}.cls-10{fill:#231f20;}.cls-11{fill:#d36227;}.cls-12{fill:#e71e25;}</style></defs><rect class="cls-1" x="0.5" y="0.5" width="288.36" height="288.36"/><text class="cls-2" transform="translate(10.47 41.23)"><tspan class="cls-3">CS</tspan><tspan x="57.79" y="0">S JS HTML</tspan><tspan class="cls-3" x="0" y="48">CS</tspan><tspan x="57.79" y="48">S JS HTML</tspan><tspan class="cls-3" x="0" y="96">CS</tspan><tspan x="57.79" y="96">S JS HTML</tspan><tspan class="cls-3" x="0" y="144">CS</tspan><tspan x="57.79" y="144">S JS HTML</tspan><tspan class="cls-3" x="0" y="192">CS</tspan><tspan x="57.79" y="192">S JS HTML</tspan><tspan class="cls-3" x="0" y="240">CS</tspan><tspan x="57.79" y="240">S JS HTML</tspan></text><rect class="cls-4" x="34.82" y="22.34" width="144" height="184.32" rx="11.04"/><line class="cls-5" x1="47.3" y1="39.62" x2="159.62" y2="39.62"/><line class="cls-5" x1="47.3" y1="66.02" x2="159.62" y2="66.02"/><line class="cls-5" x1="47.3" y1="90.02" x2="159.62" y2="90.02"/><line class="cls-5" x1="47.3" y1="109.22" x2="159.62" y2="109.22"/><line class="cls-5" x1="47.3" y1="135.62" x2="159.62" y2="135.62"/><line class="cls-5" x1="47.3" y1="159.62" x2="159.62" y2="159.62"/><rect class="cls-6" x="63.62" y="48.74" width="144" height="184.32" rx="9.36"/><line class="cls-5" x1="79.46" y1="80.9" x2="191.78" y2="80.9"/><line class="cls-5" x1="79.46" y1="107.3" x2="191.78" y2="107.3"/><line class="cls-5" x1="79.46" y1="131.3" x2="191.78" y2="131.3"/><line class="cls-5" x1="79.46" y1="150.5" x2="191.78" y2="150.5"/><line class="cls-5" x1="79.46" y1="176.9" x2="191.78" y2="176.9"/><line class="cls-5" x1="79.46" y1="200.9" x2="191.78" y2="200.9"/><rect class="cls-6" x="36.2" y="159.62" width="216.96" height="102.24" rx="25.71"/><text class="cls-7" transform="translate(64.64 206.66)"><tspan class="cls-8">CS</tspan><tspan class="cls-9" x="68.17" y="0">S</tspan><tspan class="cls-10" x="96.99" y="0"> </tspan><tspan class="cls-11" x="113.39" y="0">JS</tspan><tspan class="cls-10" x="162.58" y="0"> </tspan><tspan class="cls-12"><tspan x="12.48" y="48">HTML</tspan><tspan class="cls-10" x="150.1" y="48"> </tspan></tspan></text></svg>