<svg id="Layer_1" data-name="Layer 1" xmlns="http://www.w3.org/2000/svg" viewBox="0 0 200 200"><defs><style>.cls-1{fill:#3d3d3d;}.cls-2{fill:#5b5b5b;}.cls-3{fill:#007eb5;}.cls-4{fill:#ead900;}.cls-5{fill:#e50037;}.cls-6{fill:#ff4500;}.cls-7{font-size:19.48px;font-family:Pixellari;}.cls-7,.cls-8{fill:#fff;}.cls-9{fill:#4ea800;}.cls-10{fill:#275fc1;}.cls-11{fill:#fcfcfc;}.cls-12{fill:#515151;}</style></defs><rect class="cls-1" width="200" height="200"/><path class="cls-2" d="M187.83,191H10V26.36A9.36,9.36,0,0,1,19.35,17H178.47a9.36,9.36,0,0,1,9.36,9.36Z"/><circle class="cls-3" cx="184" cy="12" r="2.83"/><circle class="cls-4" cx="175" cy="12" r="2.83"/><circle class="cls-5" cx="166" cy="12" r="2.83"/><rect class="cls-6" x="34.19" y="26.61" width="135.55" height="19.23" rx="2.28"/><text class="cls-7" transform="translate(35.51 43.44) scale(1.11 1)">#PROYECTOS</text><rect class="cls-8" x="23.61" y="60.26" width="40.38" height="3.85"/><rect class="cls-8" x="23.61" y="76.6" width="22.11" height="3.85"/><rect class="cls-8" x="23.61" y="111.21" width="22.11" height="3.85"/><rect class="cls-8" x="93.79" y="111.21" width="14.42" height="3.85"/><rect class="cls-9" x="137.05" y="118.9" width="14.42" height="3.85"/><rect class="cls-10" x="47.65" y="111.21" width="43.26" height="3.85"/><rect class="cls-8" x="38.99" y="131.4" width="22.11" height="3.85"/><rect class="cls-8" x="109.17" y="131.4" width="14.42" height="3.85"/><rect class="cls-10" x="63.03" y="131.4" width="43.26" height="3.85"/><rect class="cls-6" x="23.61" y="118.9" width="26.26" height="3.85"/><rect class="cls-6" x="106.95" y="118.9" width="26.26" height="3.85"/><rect class="cls-10" x="52.15" y="118.9" width="51.37" height="3.85"/><rect class="cls-8" x="107.25" y="141.01" width="14.42" height="3.85"/><rect class="cls-6" x="77.15" y="141.01" width="26.26" height="3.85"/><rect class="cls-11" x="22.35" y="141.01" width="51.37" height="3.85"/><rect class="cls-12" x="23.61" y="103.52" width="113.44" height="3.85"/></svg>