<?xml version="1.0" encoding="utf-8"?>
<!-- Generator: Adobe Illustrator 26.0.0, SVG Export Plug-In . SVG Version: 6.00 Build 0)  -->
<svg version="1.1" id="Layer_1" xmlns="http://www.w3.org/2000/svg" xmlns:xlink="http://www.w3.org/1999/xlink" x="0px" y="0px"
	 viewBox="0 0 200 200" style="enable-background:new 0 0 200 200;" xml:space="preserve">
<style type="text/css">
	.st0{fill:#4C4C4C;}
	.st1{fill:#FF4500;}
	.st2{fill:#FFFFFF;}
	.st3{font-family:'Pixellari';}
	.st4{font-size:20.2652px;}
	.st5{fill:#282828;}
	.st6{font-family:'RetroGaming';}
	.st7{font-size:15px;}
	.st8{fill:#006FA0;}
	.st9{fill:#00A4FF;}
</style>
<g>
	<rect y="0" class="st0" width="200" height="200"/>
</g>
<path class="st1" d="M167.4,51H31c-1.3,0-2.3-1-2.3-2.3V33.3c0-1.3,1-2.3,2.3-2.3h136.4c1.3,0,2.3,1,2.3,2.3v15.4
	C169.7,50,168.7,51,167.4,51z"/>
<text transform="matrix(1.1081 0 0 1 30.0557 48.5039)" class="st2 st3 st4">#PROYECTOS</text>
<g>
	<text transform="matrix(1 0 0 1 7.4004 71.4346)"><tspan x="0" y="0" class="st5 st6 st7">&lt;!</tspan><tspan x="13.6" y="0" class="st8 st6 st7">Doctype</tspan><tspan x="92" y="0" class="st6 st7"> </tspan><tspan x="97.5" y="0" class="st9 st6 st7">html</tspan><tspan x="135.7" y="0" class="st5 st6 st7">&gt;</tspan></text>
	<text transform="matrix(1 0 0 1 10.8398 88.3999)"><tspan x="0" y="0" class="st5 st6 st7">&lt;</tspan><tspan x="8.9" y="0" class="st8 st6 st7">head</tspan><tspan x="55.2" y="0" class="st5 st6 st7"> &gt; </tspan><tspan x="0" y="18" class="st5 st6 st7">&lt;</tspan><tspan x="8.9" y="18" class="st8 st6 st7">meta</tspan><tspan x="52.5" y="18" class="st5 st6 st7"> </tspan><tspan x="57.9" y="18" class="st9 st6 st7">charset=&quot;UTF</tspan><tspan x="0" y="36" class="st5 st6 st7">&lt;</tspan><tspan x="8.9" y="36" class="st8 st6 st7">title</tspan><tspan x="49.1" y="36" class="st5 st6 st7">&gt; </tspan><tspan x="63.4" y="36" class="st2 st6 st7">Proyectos</tspan><tspan x="163.6" y="36" class="st5 st6 st7"> &lt;/</tspan><tspan x="0" y="54" class="st5 st6 st7">&lt;/</tspan><tspan x="20.5" y="54" class="st8 st6 st7">head</tspan><tspan x="66.8" y="54" class="st5 st6 st7">&gt;</tspan><tspan x="0" y="72" class="st5 st6 st7">&lt;</tspan><tspan x="8.9" y="72" class="st8 st6 st7">body</tspan><tspan x="55.2" y="72" class="st5 st6 st7">&gt;</tspan><tspan x="0" y="90" class="st5 st6 st7">&lt;/</tspan><tspan x="20.5" y="90" class="st8 st6 st7">body</tspan><tspan x="66.8" y="90" class="st5 st6 st7">&gt;</tspan><tspan x="0" y="108" class="st5 st6 st7">&lt;/</tspan><tspan x="20.5" y="108" class="st8 st6 st7">html</tspan><tspan x="58.6" y="108" class="st5 st6 st7">&gt;</tspan></text>
</g>
<rect x="85" y="12" class="st9" width="12" height="13"/>
<g>
	<rect x="68.5" y="12.5" class="st0" width="11" height="12"/>
	<path d="M79,13v11H69V13H79 M80,12H68v13h12V12L80,12z"/>
</g>
<rect x="101" y="12" class="st1" width="12" height="13"/>
<rect x="117" y="12" class="st8" width="12" height="13"/>
</svg>
