<?xml version="1.0" encoding="UTF-8"?>
<!DOCTYPE svg PUBLIC "-//W3C//DTD SVG 1.1//EN" "http://www.w3.org/Graphics/SVG/1.1/DTD/svg11.dtd">
<!-- Creator: CorelDRAW -->
<svg xmlns="http://www.w3.org/2000/svg" xml:space="preserve" width="215.9mm" height="279.4mm" version="1.1" style="shape-rendering:geometricPrecision; text-rendering:geometricPrecision; image-rendering:optimizeQuality; fill-rule:evenodd; clip-rule:evenodd"
viewBox="0 0 21590 27940"
 xmlns:xlink="http://www.w3.org/1999/xlink"
 xmlns:xodm="http://www.corel.com/coreldraw/odm/2003">
 <defs>
  <style type="text/css">
   <![CDATA[
    .fil0 {fill:#FEFEFE}
   ]]>
  </style>
 </defs>
 <g id="Capa_x0020_1">
  <metadata id="CorelCorpID_0Corel-Layer"/>
  <g id="_2425426967184">
   <path class="fil0" d="M3597.71 9764.53l7197.29 4741.74c66.22,0 765.25,-497.43 894.18,-573.5l6303.11 -4168.24c0,-296.89 -380.98,-762.07 -790.29,-762.07l-12814 0c-407.27,0 -790.29,461.44 -790.29,762.07z"/>
   <path class="fil0" d="M3597.71 18147.25c8.45,379.04 404,790.29 790.29,790.29l12814 0c386.29,0 781.84,-411.25 790.29,-790.29l-446.18 -259.44c-1021.86,-655.61 -2132.4,-1328.36 -3126.9,-1981.76l-880.89 -558.57c-158.13,-98.91 -295.17,-181.26 -451.6,-282.24 -151.72,-97.93 -291.98,-193.54 -448.11,-285.73 -386.74,-228.35 -162.75,-314.62 -1126.87,330.6 -648.78,434.2 -644.19,526.52 -1196.56,158.22l-885.96 -581.91c-229.26,-159.03 -160.19,-94.06 -459.82,82.88l-4237.28 2677.75c-82.97,53.23 -133.35,92.25 -222.21,144.71 -129.71,76.58 -796.72,524.65 -912.2,555.49z"/>
   <path class="fil0" d="M3569.49 17131.16l3963.09 -2500.35c143.84,-94.27 861.23,-524.45 919.77,-604.36 -152.76,-40.79 -3997.86,-2650.93 -4571.06,-2993.14 -107.54,-64.2 -195.88,-134.91 -311.8,-196.25l0 6294.1z"/>
   <path class="fil0" d="M13137.65 14026.45c56.95,77.74 194.73,139.72 282.24,197.57l1522.81 960.97c104.98,62.69 199.56,131.19 310.46,197.58 783.22,468.86 1658.55,1075.24 2455.54,1552.35 97.06,58.1 216.28,132.27 311.81,196.24l0 -6294.1 -3036.95 1987.05c-162.76,108.51 -1743.76,1175.06 -1845.91,1202.34z"/>
  </g>
 </g>
</svg>
