<?xml version="1.0" encoding="UTF-8"?>
<!DOCTYPE svg PUBLIC "-//W3C//DTD SVG 1.1//EN" "http://www.w3.org/Graphics/SVG/1.1/DTD/svg11.dtd">
<!-- Creator: CorelDRAW -->
<svg xmlns="http://www.w3.org/2000/svg" xml:space="preserve" width="21.59cm" height="27.94cm" version="1.1" shape-rendering="geometricPrecision" text-rendering="geometricPrecision" image-rendering="optimizeQuality" fill-rule="evenodd" clip-rule="evenodd"
viewBox="0 0 2159 2794"
 xmlns:xlink="http://www.w3.org/1999/xlink"
 xmlns:xodm="http://www.corel.com/coreldraw/odm/2003">
 <g id="Capa_x0020_1">
  <metadata id="CorelCorpID_0Corel-Layer"/>
  <g id="_1734091117104">
   <path fill="#4CAF50" stroke="#FEFEFE" stroke-width="70" stroke-linecap="round" stroke-linejoin="round" stroke-miterlimit="22.9256" d="M835.253 1094.948c36.534,-5.172 58.841,-2.941 71.705,22.92 13.995,28.136 44.151,104.134 57.797,137.226 13.932,33.786 1.384,43.881 -16.583,64.773 -16.743,19.471 -41.307,40.255 -37.155,58.799 5.263,23.501 61.316,90.482 82.071,112.976 34.221,37.088 133.498,108.214 179.087,112.756 25.702,2.56 39.697,-18.499 56.574,-42.382 14.649,-20.729 26.91,-46.209 49.294,-47.26 21.45,-1.006 113.632,47.975 135.85,59.295 32.066,16.339 45.74,12.036 39.533,58.811 -3.52,26.518 -10.728,54.235 -24.188,71.821 -22.509,29.407 -74.022,62.323 -127.193,67.749 -51.079,5.212 -117.691,-18.363 -159.968,-34.825 -91.087,-35.467 -169.93,-84.962 -236.638,-153.487 -55.005,-56.503 -136.758,-162.16 -161.507,-228.678 -29.185,-78.444 -27.107,-160.607 29.402,-224.853 4.869,-5.536 19.261,-18.934 25.304,-22.864 11.366,-7.391 22.022,-10.712 36.615,-12.777zm-368.803 338.532l0 -19.072 0 -3.02c0,-100.504 33.559,-208.804 82.898,-292.795 24.831,-42.269 62.558,-92.295 97.117,-126.853 3.628,-3.627 5.891,-6.296 9.656,-9.611l20.424 -18.108c33.92,-31.567 106.947,-79.203 147.347,-95.889 103.616,-42.796 154.079,-56.407 275.936,-56.407 161.418,0 331.115,79.804 437.725,200.471l18.187 20.346c31.689,37.713 69.002,92.216 87.344,136.625 33.537,81.198 56.407,149.318 56.407,242.221 0,121.758 -22.194,223.173 -82.898,326.51l-80.155 107.691c-44.27,52.874 -135.245,118.342 -194.389,142.77 -81.162,33.522 -149.206,56.407 -242.221,56.407 -99.336,0 -175.016,-11.789 -264.088,-51.397 -22.096,-9.824 -38.995,-18.376 -59.411,-29.696 -32.542,-18.042 -20.432,-24.741 -62.149,-10.745l-206.789 65.347c1.165,-14.003 30.843,-93.764 37.623,-114.098 44.356,-133.024 46.453,-101.101 14.356,-149.81 -36.498,-55.39 -67.357,-136.736 -80.26,-201.509 -11.614,-58.294 -12.596,-72.898 -12.66,-119.378z"/>
   <path fill="#F9F9F9" stroke="#FEFEFE" stroke-width="70" stroke-linecap="round" stroke-linejoin="round" stroke-miterlimit="22.9256" d="M835.253 1094.948c-14.593,2.065 -25.249,5.386 -36.615,12.777 -6.043,3.93 -20.435,17.328 -25.304,22.864 -56.509,64.246 -58.587,146.409 -29.402,224.853 24.749,66.518 106.502,172.175 161.507,228.678 66.708,68.525 145.551,118.02 236.638,153.487 42.277,16.462 108.889,40.037 159.968,34.825 53.171,-5.426 104.684,-38.342 127.193,-67.749 13.46,-17.586 20.668,-45.303 24.188,-71.821 6.207,-46.775 -7.467,-42.472 -39.533,-58.811 -22.218,-11.32 -114.4,-60.301 -135.85,-59.295 -22.384,1.051 -34.645,26.531 -49.294,47.26 -16.877,23.883 -30.872,44.942 -56.574,42.382 -45.589,-4.542 -144.866,-75.668 -179.087,-112.756 -20.755,-22.494 -76.808,-89.475 -82.071,-112.976 -4.152,-18.544 20.412,-39.328 37.155,-58.799 17.967,-20.892 30.515,-30.987 16.583,-64.773 -13.646,-33.092 -43.802,-109.09 -57.797,-137.226 -12.864,-25.861 -35.171,-28.092 -71.705,-22.92z"/>
  </g>
 </g>
</svg>
