<?xml version="1.0" encoding="utf-8"?>
<!-- Generator: Adobe Illustrator 26.0.0, SVG Export Plug-In . SVG Version: 6.00 Build 0)  -->
<svg version="1.1" id="Layer_1" xmlns="http://www.w3.org/2000/svg" xmlns:xlink="http://www.w3.org/1999/xlink" x="0px" y="0px"
	 viewBox="0 0 1366 768" style="enable-background:new 0 0 1366 768;" xml:space="preserve">
<style type="text/css">
	.st0{fill:#E0E0E0;}
	.st1{fill:#EFEFEF;}
	.st2{fill:#CCCCCC;}
	.st3{fill:#D3D3D3;}
	.st4{fill:#7F7E7E;}
	.st5{fill:#6D6D6D;}
	.st6{fill:#A8A8A8;}
</style>
<g>
	<g>
		<rect class="st0" width="1366" height="768"/>
	</g>
</g>
<g>
	<g>
		<rect x="62" y="64.84" class="st1" width="18.48" height="18.48"/>
	</g>
	<g>
		<rect x="79.84" y="47" class="st2" width="18.48" height="18.48"/>
	</g>
	<g>
		<rect x="79.84" y="82.68" class="st3" width="18.48" height="18.48"/>
	</g>
	<g>
		<rect x="79.84" y="64.84" class="st4" width="18.48" height="18.48"/>
	</g>
	<g>
		<rect x="97.68" y="100.52" class="st5" width="18.48" height="18.48"/>
	</g>
	<g>
		<g>
			<rect x="97.68" y="64.84" class="st6" width="18.48" height="18.48"/>
		</g>
	</g>
</g>
<g>
	<rect x="154" y="423.84" class="st1" width="18.48" height="18.48"/>
</g>
<g>
	<rect x="237.84" y="367" class="st2" width="18.48" height="18.48"/>
</g>
<g>
	<rect x="173.84" y="462.68" class="st3" width="18.48" height="18.48"/>
</g>
<g>
	<rect x="174.84" y="347.84" class="st4" width="18.48" height="18.48"/>
</g>
<g>
	<rect x="228.68" y="410.52" class="st5" width="18.48" height="18.48"/>
</g>
<g>
	<rect x="99.84" y="352" class="st2" width="18.48" height="18.48"/>
</g>
<g>
	<rect x="36.84" y="332.84" class="st4" width="18.48" height="18.48"/>
</g>
<g>
	<rect x="90.68" y="395.52" class="st5" width="18.48" height="18.48"/>
</g>
<g>
	<g>
		<rect x="290.68" y="398.84" class="st6" width="18.48" height="18.48"/>
	</g>
</g>
<g>
	<rect x="63" y="571.84" class="st1" width="18.48" height="18.48"/>
</g>
<g>
	<rect x="146.84" y="515" class="st2" width="18.48" height="18.48"/>
</g>
<g>
	<rect x="82.84" y="610.68" class="st3" width="18.48" height="18.48"/>
</g>
<g>
	<rect x="83.84" y="495.84" class="st4" width="18.48" height="18.48"/>
</g>
<g>
	<rect x="338" y="425.84" class="st1" width="18.48" height="18.48"/>
</g>
<g>
	<rect x="43" y="244.84" class="st1" width="18.48" height="18.48"/>
</g>
<g>
	<rect x="126.84" y="188" class="st2" width="18.48" height="18.48"/>
</g>
<g>
	<rect x="63.84" y="168.84" class="st4" width="18.48" height="18.48"/>
</g>
<g>
	<rect x="117.68" y="231.52" class="st5" width="18.48" height="18.48"/>
</g>
<g>
	<g>
		<rect x="179.68" y="219.84" class="st6" width="18.48" height="18.48"/>
	</g>
</g>
<g>
	<rect x="227" y="246.84" class="st1" width="18.48" height="18.48"/>
</g>
<g>
	<rect x="357.84" y="464.68" class="st3" width="18.48" height="18.48"/>
</g>
<g>
	<rect x="412.68" y="412.52" class="st5" width="18.48" height="18.48"/>
</g>
<g>
	<g>
		<rect x="474.68" y="400.84" class="st6" width="18.48" height="18.48"/>
	</g>
</g>
<g>
	<rect x="49.68" y="671.52" class="st5" width="18.48" height="18.48"/>
</g>
<g>
	<g>
		<rect x="111.68" y="659.84" class="st6" width="18.48" height="18.48"/>
	</g>
</g>
<g>
	<rect x="330.84" y="517" class="st2" width="18.48" height="18.48"/>
</g>
<g>
	<rect x="267.84" y="497.84" class="st4" width="18.48" height="18.48"/>
</g>
<g>
	<rect x="359.84" y="268.68" class="st3" width="18.48" height="18.48"/>
</g>
<g>
	<rect x="332.84" y="321" class="st2" width="18.48" height="18.48"/>
</g>
<g>
	<rect x="269.84" y="301.84" class="st4" width="18.48" height="18.48"/>
</g>
<g>
	<rect x="165.84" y="699" class="st2" width="18.48" height="18.48"/>
</g>
<g>
	<rect x="156.68" y="742.52" class="st5" width="18.48" height="18.48"/>
</g>
<g>
	<g>
		<rect x="218.68" y="730.84" class="st6" width="18.48" height="18.48"/>
	</g>
</g>
<g>
	<rect x="287.84" y="600.68" class="st3" width="18.48" height="18.48"/>
</g>
<g>
	<rect x="260.84" y="653" class="st2" width="18.48" height="18.48"/>
</g>
<g>
	<rect x="197.84" y="633.84" class="st4" width="18.48" height="18.48"/>
</g>
<g>
	<rect x="453.84" y="303.84" class="st4" width="18.48" height="18.48"/>
</g>
<g>
	<rect x="137.68" y="558.52" class="st5" width="18.48" height="18.48"/>
</g>
<g>
	<g>
		<rect x="199.68" y="546.84" class="st6" width="18.48" height="18.48"/>
	</g>
</g>
<g>
	<rect x="342" y="30.84" class="st1" width="18.48" height="18.48"/>
</g>
<g>
	<rect x="589.84" y="692" class="st2" width="18.48" height="18.48"/>
</g>
<g>
	<rect x="361.84" y="69.68" class="st3" width="18.48" height="18.48"/>
</g>
<g>
	<rect x="526.84" y="672.84" class="st4" width="18.48" height="18.48"/>
</g>
<g>
	<rect x="416.68" y="17.52" class="st5" width="18.48" height="18.48"/>
</g>
<g>
	<rect x="451.84" y="677" class="st2" width="18.48" height="18.48"/>
</g>
<g>
	<rect x="388.84" y="657.84" class="st4" width="18.48" height="18.48"/>
</g>
<g>
	<rect x="278.68" y="2.52" class="st5" width="18.48" height="18.48"/>
</g>
<g>
	<g>
		<rect x="478.68" y="5.84" class="st6" width="18.48" height="18.48"/>
	</g>
</g>
<g>
	<rect x="251" y="178.84" class="st1" width="18.48" height="18.48"/>
</g>
<g>
	<rect x="334.84" y="122" class="st2" width="18.48" height="18.48"/>
</g>
<g>
	<rect x="270.84" y="217.68" class="st3" width="18.48" height="18.48"/>
</g>
<g>
	<rect x="271.84" y="102.84" class="st4" width="18.48" height="18.48"/>
</g>
<g>
	<rect x="526" y="32.84" class="st1" width="18.48" height="18.48"/>
</g>
<g>
	<rect x="395" y="569.84" class="st1" width="18.48" height="18.48"/>
</g>
<g>
	<rect x="478.84" y="513" class="st2" width="18.48" height="18.48"/>
</g>
<g>
	<rect x="415.84" y="493.84" class="st4" width="18.48" height="18.48"/>
</g>
<g>
	<rect x="469.68" y="556.52" class="st5" width="18.48" height="18.48"/>
</g>
<g>
	<g>
		<rect x="531.68" y="544.84" class="st6" width="18.48" height="18.48"/>
	</g>
</g>
<g>
	<rect x="579" y="571.84" class="st1" width="18.48" height="18.48"/>
</g>
<g>
	<rect x="545.84" y="71.68" class="st3" width="18.48" height="18.48"/>
</g>
<g>
	<rect x="600.68" y="19.52" class="st5" width="18.48" height="18.48"/>
</g>
<g>
	<g>
		<rect x="662.68" y="7.84" class="st6" width="18.48" height="18.48"/>
	</g>
</g>
<g>
	<rect x="518.84" y="124" class="st2" width="18.48" height="18.48"/>
</g>
<g>
	<rect x="455.84" y="104.84" class="st4" width="18.48" height="18.48"/>
</g>
<g>
	<rect x="711.84" y="593.68" class="st3" width="18.48" height="18.48"/>
</g>
<g>
	<rect x="684.84" y="646" class="st2" width="18.48" height="18.48"/>
</g>
<g>
	<rect x="621.84" y="626.84" class="st4" width="18.48" height="18.48"/>
</g>
<g>
	<rect x="805.84" y="628.84" class="st4" width="18.48" height="18.48"/>
</g>
<g>
	<rect x="325.68" y="165.52" class="st5" width="18.48" height="18.48"/>
</g>
<g>
	<g>
		<rect x="387.68" y="153.84" class="st6" width="18.48" height="18.48"/>
	</g>
</g>
<g>
	<g>
		<rect x="1276.68" y="614.68" class="st1" width="18.48" height="18.48"/>
	</g>
	<g>
		<rect x="1258.84" y="632.52" class="st2" width="18.48" height="18.48"/>
	</g>
	<g>
		<rect x="1258.84" y="596.84" class="st3" width="18.48" height="18.48"/>
	</g>
	<g>
		<rect x="1258.84" y="614.68" class="st4" width="18.48" height="18.48"/>
	</g>
	<g>
		<rect x="1241" y="579" class="st5" width="18.48" height="18.48"/>
	</g>
	<g>
		<g>
			<rect x="1241" y="614.68" class="st6" width="18.48" height="18.48"/>
		</g>
	</g>
</g>
<g>
	<rect x="1184.68" y="255.68" class="st1" width="18.48" height="18.48"/>
</g>
<g>
	<rect x="1100.84" y="312.52" class="st2" width="18.48" height="18.48"/>
</g>
<g>
	<rect x="1164.84" y="216.84" class="st3" width="18.48" height="18.48"/>
</g>
<g>
	<rect x="1163.84" y="331.68" class="st4" width="18.48" height="18.48"/>
</g>
<g>
	<rect x="1110" y="269" class="st5" width="18.48" height="18.48"/>
</g>
<g>
	<rect x="1238.84" y="327.52" class="st2" width="18.48" height="18.48"/>
</g>
<g>
	<rect x="1301.84" y="346.68" class="st4" width="18.48" height="18.48"/>
</g>
<g>
	<rect x="1248" y="284" class="st5" width="18.48" height="18.48"/>
</g>
<g>
	<g>
		<rect x="1048" y="280.68" class="st6" width="18.48" height="18.48"/>
	</g>
</g>
<g>
	<rect x="1275.68" y="107.68" class="st1" width="18.48" height="18.48"/>
</g>
<g>
	<rect x="1191.84" y="164.52" class="st2" width="18.48" height="18.48"/>
</g>
<g>
	<rect x="1255.84" y="68.84" class="st3" width="18.48" height="18.48"/>
</g>
<g>
	<rect x="1254.84" y="183.68" class="st4" width="18.48" height="18.48"/>
</g>
<g>
	<rect x="1000.68" y="253.68" class="st1" width="18.48" height="18.48"/>
</g>
<g>
	<rect x="1295.68" y="434.68" class="st1" width="18.48" height="18.48"/>
</g>
<g>
	<rect x="1211.84" y="491.52" class="st2" width="18.48" height="18.48"/>
</g>
<g>
	<rect x="1274.84" y="510.68" class="st4" width="18.48" height="18.48"/>
</g>
<g>
	<rect x="1221" y="448" class="st5" width="18.48" height="18.48"/>
</g>
<g>
	<g>
		<rect x="1159" y="459.68" class="st6" width="18.48" height="18.48"/>
	</g>
</g>
<g>
	<rect x="1111.68" y="432.68" class="st1" width="18.48" height="18.48"/>
</g>
<g>
	<rect x="980.84" y="214.84" class="st3" width="18.48" height="18.48"/>
</g>
<g>
	<rect x="926" y="267" class="st5" width="18.48" height="18.48"/>
</g>
<g>
	<g>
		<rect x="864" y="278.68" class="st6" width="18.48" height="18.48"/>
	</g>
</g>
<g>
	<rect x="1007.84" y="162.52" class="st2" width="18.48" height="18.48"/>
</g>
<g>
	<rect x="1070.84" y="181.68" class="st4" width="18.48" height="18.48"/>
</g>
<g>
	<rect x="978.84" y="410.84" class="st3" width="18.48" height="18.48"/>
</g>
<g>
	<rect x="1005.84" y="358.52" class="st2" width="18.48" height="18.48"/>
</g>
<g>
	<rect x="1068.84" y="377.68" class="st4" width="18.48" height="18.48"/>
</g>
<g>
	<rect x="759.68" y="187.68" class="st1" width="18.48" height="18.48"/>
</g>
<g>
	<rect x="675.84" y="244.52" class="st2" width="18.48" height="18.48"/>
</g>
<g>
	<rect x="739.84" y="148.84" class="st3" width="18.48" height="18.48"/>
</g>
<g>
	<rect x="738.84" y="263.68" class="st4" width="18.48" height="18.48"/>
</g>
<g>
	<rect x="685" y="201" class="st5" width="18.48" height="18.48"/>
</g>
<g>
	<rect x="813.84" y="259.52" class="st2" width="18.48" height="18.48"/>
</g>
<g>
	<rect x="823" y="216" class="st5" width="18.48" height="18.48"/>
</g>
<g>
	<g>
		<rect x="623" y="212.68" class="st6" width="18.48" height="18.48"/>
	</g>
</g>
<g>
	<rect x="575.68" y="185.68" class="st1" width="18.48" height="18.48"/>
</g>
<g>
	<rect x="686.68" y="364.68" class="st1" width="18.48" height="18.48"/>
</g>
<g>
	<rect x="555.84" y="146.84" class="st3" width="18.48" height="18.48"/>
</g>
<g>
	<rect x="501" y="199" class="st5" width="18.48" height="18.48"/>
</g>
<g>
	<rect x="553.84" y="342.84" class="st3" width="18.48" height="18.48"/>
</g>
<g>
	<rect x="580.84" y="290.52" class="st2" width="18.48" height="18.48"/>
</g>
<g>
	<rect x="643.84" y="309.68" class="st4" width="18.48" height="18.48"/>
</g>
<g>
	<rect x="884.84" y="375.68" class="st4" width="18.48" height="18.48"/>
</g>
<g>
	<rect x="1201" y="121" class="st5" width="18.48" height="18.48"/>
</g>
<g>
	<g>
		<rect x="1139" y="132.68" class="st6" width="18.48" height="18.48"/>
	</g>
</g>
<g>
	<rect x="996.68" y="648.68" class="st1" width="18.48" height="18.48"/>
</g>
<g>
	<rect x="976.84" y="609.84" class="st3" width="18.48" height="18.48"/>
</g>
<g>
	<rect x="922" y="662" class="st5" width="18.48" height="18.48"/>
</g>
<g>
	<rect x="886.84" y="2.52" class="st2" width="18.48" height="18.48"/>
</g>
<g>
	<rect x="949.84" y="21.68" class="st4" width="18.48" height="18.48"/>
</g>
<g>
	<rect x="1060" y="677" class="st5" width="18.48" height="18.48"/>
</g>
<g>
	<g>
		<rect x="860" y="673.68" class="st6" width="18.48" height="18.48"/>
	</g>
</g>
<g>
	<rect x="1087.68" y="500.68" class="st1" width="18.48" height="18.48"/>
</g>
<g>
	<rect x="1003.84" y="557.52" class="st2" width="18.48" height="18.48"/>
</g>
<g>
	<rect x="1067.84" y="461.84" class="st3" width="18.48" height="18.48"/>
</g>
<g>
	<rect x="1066.84" y="576.68" class="st4" width="18.48" height="18.48"/>
</g>
<g>
	<rect x="943.68" y="109.68" class="st1" width="18.48" height="18.48"/>
</g>
<g>
	<rect x="859.84" y="166.52" class="st2" width="18.48" height="18.48"/>
</g>
<g>
	<rect x="922.84" y="185.68" class="st4" width="18.48" height="18.48"/>
</g>
<g>
	<rect x="869" y="123" class="st5" width="18.48" height="18.48"/>
</g>
<g>
	<rect x="882.84" y="574.68" class="st4" width="18.48" height="18.48"/>
</g>
<g>
	<rect x="585.84" y="544" class="st2" width="18.48" height="18.48"/>
</g>
<g>
	<rect x="575" y="423.84" class="st1" width="18.48" height="18.48"/>
</g>
<g>
	<rect x="707.84" y="445.68" class="st3" width="18.48" height="18.48"/>
</g>
<g>
	<rect x="680.84" y="498" class="st2" width="18.48" height="18.48"/>
</g>
<g>
	<rect x="617.84" y="478.84" class="st4" width="18.48" height="18.48"/>
</g>
<g>
	<rect x="801.84" y="480.84" class="st4" width="18.48" height="18.48"/>
</g>
<g>
	<g>
		<rect x="856" y="525.68" class="st6" width="18.48" height="18.48"/>
	</g>
</g>
<g>
	<rect x="878.84" y="426.68" class="st4" width="18.48" height="18.48"/>
</g>
<g>
	<rect x="1013" y="514" class="st5" width="18.48" height="18.48"/>
</g>
<g>
	<g>
		<rect x="951" y="525.68" class="st6" width="18.48" height="18.48"/>
	</g>
</g>
</svg>
