<svg id="Layer_1" data-name="Layer 1" xmlns="http://www.w3.org/2000/svg" viewBox="0 0 18 18"><defs><style>.cls-1{fill:#181616;fill-rule:evenodd;}</style></defs><path class="cls-1" d="M9.12.24A8.88,8.88,0,1,0,18,9.12,8.87,8.87,0,0,0,9.12.24ZM11.43,16c-.37.07-.5-.15-.5-.35s0-1,0-2a1.74,1.74,0,0,0-.5-1.35c1.63-.18,3.33-.8,3.33-3.6a2.8,2.8,0,0,0-.75-2A2.57,2.57,0,0,0,13,4.81s-.61-.2-2,.75a6.82,6.82,0,0,0-3.66,0c-1.39-.95-2-.75-2-.75a2.65,2.65,0,0,0-.08,1.93,2.85,2.85,0,0,0-.75,2c0,2.79,1.71,3.42,3.33,3.6a1.61,1.61,0,0,0-.47,1,1.54,1.54,0,0,1-2.12-.61,1.54,1.54,0,0,0-1.12-.75s-.71,0,0,.45a1.9,1.9,0,0,1,.81,1.06s.43,1.42,2.46,1c0,.61,0,1.07,0,1.24s-.13.42-.5.35a7.3,7.3,0,1,1,4.62,0Z"/></svg>